<svg width="121" height="105" viewBox="0 0 121 105" fill="none" xmlns="http://www.w3.org/2000/svg">
<g clip-path="url(#clip0_1_1141)">
<path d="M30.734 104.692C30.5138 104.681 30.2993 104.617 30.1082 104.507C29.917 104.397 29.7546 104.244 29.634 104.059L0.150024 52.977C0.0510658 52.7812 -0.000488281 52.5649 -0.000488281 52.3455C-0.000488281 52.1261 0.0510658 51.9098 0.150024 51.714L29.643 0.629025C29.7639 0.444885 29.9265 0.291861 30.1176 0.182392C30.3088 0.0729236 30.523 0.0100987 30.743 -0.000976562H89.724C89.944 0.0100987 90.1583 0.0729236 90.3494 0.182392C90.5406 0.291861 90.7032 0.444885 90.824 0.629025L120.317 51.714C120.416 51.9098 120.468 52.1261 120.468 52.3455C120.468 52.5649 120.416 52.7812 120.317 52.977L90.824 104.058C90.704 104.243 90.5416 104.397 90.3504 104.507C90.1591 104.617 89.9444 104.68 89.724 104.691L30.734 104.692Z" fill="url(#paint0_linear_1_1141)"/>
<path d="M34.639 96.6721L9.04603 52.3521L34.639 8.02405H85.823L111.416 52.3521L85.823 96.6721H34.639Z" fill="url(#paint1_linear_1_1141)"/>
<path d="M89.612 1.45703H30.855L1.47403 52.348L30.855 103.233H89.617L118.998 52.348L89.612 1.45703ZM86.397 97.668H34.065L7.89603 52.348L34.065 7.02503H86.397L112.566 52.348L86.397 97.668Z" fill="url(#paint2_linear_1_1141)"/>
<path d="M86.397 7.02502H34.065L7.89603 52.348L34.065 97.668H86.397L112.566 52.348L86.397 7.02502ZM85.823 96.671H34.64L9.04503 52.348L34.64 8.01902H85.823L111.415 52.348L85.823 96.671Z" fill="url(#paint3_linear_1_1141)"/>
<path d="M86.397 7.02502H34.065L7.89603 52.348L34.065 97.668H86.397L112.566 52.348L86.397 7.02502ZM85.823 96.671H34.64L9.04503 52.348L34.64 8.01902H85.823L111.415 52.348L85.823 96.671Z" fill="url(#paint4_linear_1_1141)"/>
<g style="mix-blend-mode:multiply">
<path d="M85.97 8.31004L111.405 52.366L111.416 52.347L85.823 8.01904H34.638L9.04603 52.352L9.20303 52.624L34.784 8.31504L85.97 8.31004Z" fill="#C79858"/>
</g>
<path d="M34.784 96.9641H85.969L111.562 52.6391L111.405 52.3671L85.824 96.6721H34.639L9.20303 52.6191L9.19203 52.6381L34.784 96.9641Z" fill="url(#paint5_linear_1_1141)"/>
<g style="mix-blend-mode:screen">
<g style="mix-blend-mode:screen">
<path d="M56.626 29.8241H54.077V37.1441H53.109V29.8241H50.56V28.9611H56.627L56.626 29.8241Z" fill="#AE9557"/>
</g>
<g style="mix-blend-mode:screen">
<path d="M62.728 33.3901H58.797V37.1431H57.829V28.9611H58.797V32.5241H62.728V28.9611H63.696V37.1441H62.728V33.3901Z" fill="#AE9557"/>
</g>
<g style="mix-blend-mode:screen">
<path d="M65.684 28.9611H70.136V29.8241H66.652V32.5011H69.844V33.3671H66.652V36.2741H70.198V37.1431H65.687L65.684 28.9611Z" fill="#AE9557"/>
</g>
</g>
<g style="mix-blend-mode:screen">
<g style="mix-blend-mode:screen">
<path d="M35.784 53.191C35.7896 53.4463 35.7559 53.701 35.684 53.946C35.3178 53.8678 34.946 53.8183 34.572 53.798C34.159 56.629 30.963 60.383 28.207 61.085C23.899 60.985 21.986 58.906 21.986 54.385C21.986 47.751 27.286 41.385 32.948 41.385C35.148 41.385 36.485 42.379 36.485 44.069C36.4552 44.6898 36.285 45.2958 35.9873 45.8414C35.6895 46.387 35.272 46.858 34.766 47.219C34.3994 47.117 34.0676 46.9166 33.8067 46.6395C33.5458 46.3624 33.3658 46.0192 33.286 45.647C34.402 44.823 34.786 44.266 34.786 43.321C34.786 42.596 34.304 42.209 33.454 42.209C32.027 42.209 30.285 43.347 28.615 45.355C26.2998 48.0007 25.0725 51.425 25.18 54.939C25.18 57.744 26.387 59.732 27.913 59.877C29.97 59.418 32.247 56.34 32.513 54.017C31.7051 54.2357 30.8773 54.373 30.042 54.427C29.6052 54.4541 29.1716 54.3363 28.8085 54.0919C28.4455 53.8474 28.1732 53.49 28.034 53.075C30.068 52.228 32.2248 51.7128 34.422 51.549C35.273 51.547 35.784 52.154 35.784 53.191Z" fill="#AE9557"/>
</g>
<g style="mix-blend-mode:screen">
<path d="M38.852 56.414C38.852 56.608 38.829 56.824 38.829 57.041C38.829 57.865 39.023 58.98 39.941 58.98C41.686 58.98 43.353 57.238 44.37 56.149C44.5195 56.2722 44.6568 56.4095 44.78 56.559C43.6075 58.2655 41.9076 59.5403 39.941 60.188C38.985 60.1562 38.0796 59.7509 37.4189 59.0592C36.7583 58.3675 36.395 57.4444 36.407 56.488C36.407 52.518 40.039 47.849 43.235 47.849C44.0816 48.0194 44.828 48.5139 45.315 49.227C45.073 53.192 42.967 54.77 38.852 56.414ZM39.046 55.495C41.612 54.212 43.525 52.227 43.646 50.026C41.877 50.265 39.82 52.493 39.045 55.495H39.046Z" fill="#AE9557"/>
</g>
<g style="mix-blend-mode:screen">
<path d="M52.357 49.828C51.629 51.596 49.089 55.035 48.896 56.508C49.913 55.422 51.557 53.388 52.115 52.808C53.349 51.502 55.626 49.108 57.197 49.108C57.5747 49.1517 57.9337 49.2962 58.2362 49.5266C58.5387 49.7569 58.7735 50.0645 58.916 50.417C58.916 50.486 58.647 50.517 58.216 51.017C57.343 52.159 55.699 55.351 55.699 57.336C55.699 58.136 55.916 58.281 56.299 58.281C56.637 58.281 57.099 58.038 57.316 58.038C57.4495 58.1651 57.5275 58.3398 57.533 58.524C56.9437 59.0389 56.2241 59.3817 55.453 59.515C53.589 59.515 53.153 58.38 53.153 56.949C53.153 56.149 53.373 55.158 54.485 52.595C53.7515 52.9292 53.0863 53.3964 52.523 53.973C51.0865 55.3577 49.7825 56.8737 48.628 58.501C48.1918 59.2333 47.6439 59.8929 47.004 60.456C46.6947 60.2392 46.4353 59.9585 46.2435 59.633C46.0517 59.3075 45.9319 58.9447 45.892 58.569C46.1463 56.3481 46.7589 54.183 47.706 52.158C48.94 49.327 50.078 47.63 50.347 47.509C50.831 47.7255 51.2617 48.0453 51.6089 48.4459C51.9561 48.8465 52.2115 49.3182 52.357 49.828Z" fill="#AE9557"/>
</g>
<g style="mix-blend-mode:screen">
<path d="M65.3 56.751C65.294 56.4568 65.3349 56.1634 65.421 55.882C65.155 55.859 63.413 58.349 62.882 58.982C62.6088 59.3208 62.2496 59.5802 61.842 59.733C61.2637 59.7168 60.7033 59.5283 60.2328 59.1915C59.7622 58.8548 59.403 58.3852 59.201 57.843C59.1836 57.1518 59.2507 56.461 59.401 55.786C59.982 53.342 61.701 49.25 63.732 47.774C64.5182 47.7578 65.2838 48.0259 65.888 48.529C64.6147 50.2448 63.5806 52.1257 62.814 54.12C62.3119 55.3266 61.9681 56.5931 61.791 57.888C61.7887 58.0501 61.8501 58.2067 61.962 58.324C62.444 58.124 63.097 57.33 64.429 55.512C65.3802 54.3534 66.1765 53.0761 66.798 51.712C67.1722 50.5014 67.8199 49.3931 68.691 48.473C69.5214 48.4743 70.3288 48.746 70.991 49.247C69.803 52.082 67.943 54.792 67.943 57.331C67.9826 58.0999 68.1626 58.855 68.474 59.559C68.474 59.631 68.374 59.659 68.374 59.659C67.5487 59.5136 66.7643 59.1923 66.074 58.717C65.8173 58.4598 65.6161 58.1525 65.483 57.8144C65.3498 57.4762 65.2876 57.1142 65.3 56.751Z" fill="#AE9557"/>
</g>
<g style="mix-blend-mode:screen">
<path d="M72.174 53.027C72.318 52.394 73.02 49.881 74.474 49.152C75.3837 49.4126 76.1776 49.9752 76.725 50.747C75.252 52.394 74.815 54.117 73.992 56.247C73.6299 57.0899 73.3849 57.9785 73.264 58.888C73.264 59.469 73.264 59.688 73.12 59.688C72.6452 59.5776 72.218 59.3186 71.9005 58.9487C71.5831 58.5787 71.392 58.1171 71.355 57.631C71.5074 56.0773 71.7812 54.5379 72.174 53.027ZM76.046 46.682C75.8598 46.4567 75.7567 46.1743 75.754 45.882C75.8595 44.7952 76.1121 43.7277 76.505 42.709C77.6443 42.9299 78.6756 43.5289 79.432 44.409C78.4135 45.4382 77.4982 46.5645 76.699 47.772C76.312 47.703 75.971 47.388 75.971 47.119C75.9797 46.9711 76.0045 46.8245 76.045 46.682H76.046Z" fill="#AE9557"/>
</g>
<g style="mix-blend-mode:screen">
<path d="M82.965 49.828C82.24 51.596 79.697 55.035 79.504 56.508C80.521 55.422 82.168 53.388 82.723 52.808C83.957 51.502 86.234 49.108 87.809 49.108C88.1862 49.1522 88.5445 49.297 88.8465 49.5273C89.1484 49.7576 89.3828 50.0649 89.525 50.417C89.525 50.486 89.259 50.517 88.825 51.017C87.956 52.159 86.309 55.351 86.309 57.336C86.309 58.136 86.529 58.281 86.909 58.281C87.25 58.281 87.709 58.038 87.926 58.038C88.06 58.1651 88.139 58.3395 88.146 58.524C87.5556 59.0389 86.835 59.3818 86.063 59.515C84.199 59.515 83.763 58.38 83.763 56.949C83.763 56.149 83.983 55.158 85.098 52.595C84.364 52.9283 83.6986 53.3957 83.136 53.973C81.6969 55.3567 80.3912 56.8728 79.236 58.501C78.8005 59.2329 78.2536 59.8925 77.615 60.456C77.3051 60.2394 77.0451 59.9589 76.8527 59.6334C76.6602 59.3079 76.5396 58.945 76.499 58.569C76.755 56.3479 77.369 54.1829 78.317 52.158C79.551 49.327 80.689 47.63 80.955 47.509C81.4393 47.725 81.8703 48.0446 82.2176 48.4453C82.5649 48.846 82.82 49.318 82.965 49.828Z" fill="#AE9557"/>
</g>
<g style="mix-blend-mode:screen">
<path d="M92.304 56.414C92.304 56.608 92.281 56.824 92.281 57.041C92.281 57.865 92.475 58.98 93.393 58.98C95.138 58.98 96.809 57.238 97.822 56.149C97.9715 56.2722 98.1088 56.4095 98.232 56.559C97.0602 58.2661 95.3601 59.5412 93.393 60.188C92.437 60.1562 91.5316 59.7509 90.8709 59.0592C90.2103 58.3675 89.847 57.4444 89.859 56.488C89.859 52.518 93.491 47.849 96.687 47.849C97.5336 48.0194 98.28 48.5139 98.767 49.227C98.523 53.192 96.42 54.77 92.304 56.414ZM92.498 55.495C95.067 54.212 96.977 52.227 97.098 50.026C95.331 50.265 93.273 52.493 92.496 55.495H92.498Z" fill="#AE9557"/>
</g>
</g>
<g style="mix-blend-mode:screen">
<g style="mix-blend-mode:screen">
<path d="M38.36 71.3541C38.2867 70.2397 38.5918 69.1333 39.226 68.2141C39.5206 67.8487 39.8981 67.559 40.3272 67.3689C40.7563 67.1788 41.2245 67.0938 41.693 67.1211C42.2068 67.1084 42.717 67.2109 43.186 67.4211C43.6 67.618 43.9594 67.9133 44.233 68.2811C44.524 68.6799 44.7327 69.1327 44.847 69.6131C44.9852 70.1822 45.0524 70.7664 45.047 71.3521C45.1212 72.4666 44.8132 73.5731 44.174 74.4891C43.8763 74.8541 43.4963 75.1434 43.0653 75.3334C42.6342 75.5233 42.1643 75.6086 41.694 75.5821C41.184 75.5933 40.678 75.4891 40.214 75.2771C39.8019 75.079 39.444 74.7839 39.171 74.4171C38.8813 74.0174 38.6727 73.5649 38.557 73.0851C38.42 72.5184 38.3538 71.937 38.36 71.3541ZM39.387 71.3541C39.3858 71.7853 39.4311 72.2155 39.522 72.6371C39.6014 73.0142 39.7423 73.3757 39.939 73.7071C40.1164 74.0061 40.363 74.2582 40.658 74.4421C40.9694 74.6331 41.3299 74.729 41.695 74.7181C42.025 74.7303 42.353 74.6616 42.6504 74.518C42.9478 74.3744 43.2055 74.1602 43.401 73.8941C43.8697 73.1341 44.0857 72.2453 44.018 71.3551C44.0205 70.9237 43.9752 70.4934 43.883 70.0721C43.8054 69.6921 43.6634 69.3282 43.463 68.9961C43.2816 68.6982 43.0334 68.4466 42.738 68.2611C42.4239 68.0712 42.0619 67.9754 41.695 67.9851C41.3669 67.9729 41.0408 68.0417 40.7455 68.1854C40.4502 68.3291 40.1949 68.5433 40.002 68.8091C39.5365 69.5725 39.3215 70.4623 39.387 71.3541ZM45.933 77.4401C45.7542 77.4943 45.5708 77.5318 45.385 77.5521C45.2064 77.5719 45.0268 77.5819 44.847 77.5821C44.4641 77.5835 44.0821 77.5429 43.708 77.4611C43.337 77.3791 42.98 77.2871 42.632 77.1921C42.284 77.0971 41.953 77.0051 41.632 76.9231C41.3353 76.8447 41.0299 76.804 40.723 76.8021C40.5414 76.8011 40.3605 76.8243 40.185 76.8711V76.0181C40.293 75.9954 40.398 75.9757 40.5 75.9591C40.6042 75.9429 40.7096 75.9352 40.815 75.9361C41.1434 75.9371 41.4704 75.9777 41.789 76.0571C42.114 76.1421 42.445 76.2281 42.78 76.3261C43.115 76.4241 43.456 76.5131 43.807 76.5951C44.1708 76.6778 44.5429 76.7184 44.916 76.7161C45.2583 76.7173 45.5996 76.6787 45.933 76.6011V77.4401Z" fill="#AE9557"/>
</g>
<g style="mix-blend-mode:screen">
<path d="M51.396 67.2631H52.328V72.7191C52.3379 73.1511 52.2736 73.5817 52.138 73.9921C52.0267 74.3267 51.8379 74.6302 51.587 74.8781C51.3425 75.1096 51.0484 75.2824 50.727 75.3831C50.3683 75.4957 49.994 75.551 49.618 75.5471C48.8341 75.606 48.0561 75.3734 47.433 74.8941C47.173 74.6362 46.9723 74.3248 46.8448 73.9814C46.7174 73.6381 46.6663 73.2711 46.695 72.9061V67.2631H47.666V72.4531C47.6581 72.8046 47.6988 73.1556 47.787 73.4961C47.8537 73.7513 47.9794 73.9873 48.154 74.1851C48.3218 74.3636 48.5335 74.495 48.768 74.5661C49.0469 74.6495 49.337 74.6893 49.628 74.6841C49.8794 74.7087 50.133 74.6744 50.3688 74.5837C50.6045 74.4931 50.8159 74.3487 50.986 74.1621C51.3034 73.6515 51.4472 73.052 51.396 72.4531V67.2631Z" fill="#AE9557"/>
</g>
<g style="mix-blend-mode:screen">
<path d="M58.2 73.1761H55.2L54.386 75.4431H53.415L56.515 67.1321H56.958L60.068 75.4431H59.041L58.2 73.1761ZM55.513 72.3331H57.913L57.004 69.8461L56.715 68.6061H56.702L56.41 69.8691L55.513 72.3331Z" fill="#AE9557"/>
</g>
<g style="mix-blend-mode:screen">
<path d="M65.992 75.4391H61.156V67.2631H62.124V74.5801H65.992V75.4391Z" fill="#AE9557"/>
</g>
<g style="mix-blend-mode:screen">
<path d="M67.42 67.2631H68.391V75.4391H67.42V67.2631Z" fill="#AE9557"/>
</g>
<g style="mix-blend-mode:screen">
<path d="M75.882 68.123H73.336V75.439H72.365V68.119H69.816V67.259H75.883L75.882 68.123Z" fill="#AE9557"/>
</g>
<g style="mix-blend-mode:screen">
<path d="M78.745 72.1911L76.045 67.2631H77.18L79.101 70.8391L79.301 71.5541H79.311L79.528 70.8191L81.365 67.2661H82.395L79.718 72.1871V75.4391H78.747L78.745 72.1911Z" fill="#AE9557"/>
</g>
</g>
<path d="M56.48 29.5351H53.931V36.8521H52.963V29.5351H50.414V28.6691H56.481L56.48 29.5351Z" fill="url(#paint6_linear_1_1141)"/>
<path d="M62.581 33.0951H58.654V36.8521H57.683V28.6691H58.654V32.2321H62.581V28.6691H63.552V36.8521H62.581V33.0951Z" fill="url(#paint7_linear_1_1141)"/>
<path d="M65.54 28.6691H69.992V29.5351H66.508V32.2081H69.7V33.0741H66.508V35.9841H70.051V36.8501H65.54V28.6691Z" fill="url(#paint8_linear_1_1141)"/>
<path d="M35.637 52.902C35.6409 53.1559 35.6072 53.409 35.537 53.653C35.1694 53.5748 34.7963 53.5253 34.421 53.505C34.011 56.336 30.815 60.09 28.056 60.792C23.748 60.692 21.835 58.613 21.835 54.092C21.835 47.458 27.135 41.092 32.8 41.092C35 41.092 36.334 42.086 36.334 43.779C36.3045 44.3994 36.1344 45.0049 35.8366 45.5499C35.5388 46.0949 35.1211 46.5651 34.615 46.925C34.2486 46.8233 33.9172 46.6229 33.6569 46.3457C33.3966 46.0685 33.2175 45.7251 33.139 45.353C34.251 44.529 34.639 43.972 34.639 43.027C34.639 42.302 34.153 41.915 33.307 41.915C31.88 41.915 30.134 43.053 28.468 45.061C26.1506 47.7056 24.922 51.1304 25.03 54.645C25.03 57.45 26.241 59.438 27.763 59.583C29.82 59.124 32.097 56.049 32.363 53.726C31.5561 53.943 30.7298 54.0804 29.896 54.136C29.4587 54.1616 29.0251 54.0429 28.6618 53.7981C28.2984 53.5533 28.0256 53.196 27.885 52.781C29.9202 51.9351 32.078 51.4212 34.276 51.259C35.129 51.259 35.637 51.859 35.637 52.902Z" fill="url(#paint9_linear_1_1141)"/>
<path d="M38.708 56.1221C38.708 56.3161 38.685 56.5321 38.685 56.7491C38.685 57.5731 38.879 58.6881 39.797 58.6881C41.539 58.6881 43.209 56.9461 44.223 55.8571C44.3726 55.9812 44.5108 56.1184 44.636 56.2671C43.4635 57.9736 41.7636 59.2484 39.797 59.8961C38.8408 59.865 37.9349 59.46 37.2741 58.7681C36.6132 58.0763 36.2502 57.1527 36.263 56.1961C36.263 52.2261 39.892 47.5541 43.087 47.5541C43.9345 47.7242 44.6813 48.2201 45.167 48.9351C44.926 52.9031 42.823 54.4751 38.708 56.1221ZM38.902 55.2031C41.468 53.9201 43.381 51.9351 43.502 49.7341C41.733 49.9731 39.676 52.2011 38.902 55.2031Z" fill="url(#paint10_linear_1_1141)"/>
<path d="M52.209 49.5361C51.484 51.3041 48.941 54.7431 48.748 56.2161C49.765 55.1271 51.412 53.0961 51.967 52.5161C53.204 51.2101 55.478 48.8161 57.053 48.8161C57.43 48.8595 57.7883 49.0037 58.0903 49.2335C58.3922 49.4634 58.6267 49.7703 58.769 50.1221C58.769 50.1911 58.503 50.2221 58.069 50.7221C57.2 51.8571 55.553 55.0531 55.553 57.0381C55.553 57.8381 55.773 57.9831 56.153 57.9831C56.494 57.9831 56.953 57.7401 57.17 57.7401C57.304 57.8671 57.383 58.0415 57.39 58.2261C56.7996 58.741 56.079 59.0838 55.307 59.2171C53.443 59.2171 53.007 58.0821 53.007 56.6511C53.007 55.8511 53.224 54.8601 54.336 52.2941C53.604 52.6305 52.9399 53.0986 52.377 53.6751C50.9379 55.0588 49.6322 56.5748 48.477 58.2031C48.0425 58.9357 47.4955 59.5954 46.856 60.1581C46.5461 59.9414 46.2861 59.6609 46.0937 59.3354C45.9012 59.0099 45.7806 58.647 45.74 58.2711C45.996 56.049 46.6099 53.883 47.558 51.8571C48.792 49.0291 49.93 47.3331 50.196 47.2111C50.6815 47.4273 51.1135 47.7476 51.4614 48.1494C51.8093 48.5512 52.0645 49.0246 52.209 49.5361Z" fill="url(#paint11_linear_1_1141)"/>
<path d="M65.156 56.4621C65.1507 56.1668 65.1905 55.8724 65.274 55.5891C65.008 55.5631 63.274 58.0561 62.734 58.6891C62.4614 59.0286 62.1021 59.2881 61.694 59.4401C61.1163 59.4242 60.5566 59.2361 60.0866 58.8999C59.6165 58.5636 59.2577 58.0947 59.056 57.5531C59.0382 56.8611 59.1034 56.1696 59.25 55.4931C59.831 53.0521 61.55 48.9571 63.581 47.4811C64.3673 47.4643 65.133 47.7325 65.737 48.2361C64.4656 49.9516 63.4316 51.8309 62.663 53.8231C62.1644 55.033 61.8236 56.3021 61.649 57.5991C61.6458 57.7606 61.7057 57.9171 61.816 58.0351C62.298 57.8351 62.951 57.0411 64.283 55.2261C65.2346 54.0673 66.032 52.79 66.655 51.4261C67.029 50.2152 67.6756 49.1061 68.545 48.1841C69.3757 48.1838 70.1836 48.4556 70.845 48.9581C69.661 51.7931 67.797 54.5031 67.797 57.0421C67.8369 57.811 68.0172 58.5661 68.329 59.2701C68.329 59.3421 68.229 59.3701 68.229 59.3701C67.4033 59.226 66.6186 58.9046 65.929 58.4281C65.6725 58.1707 65.4716 57.8634 65.3387 57.5252C65.2057 57.1871 65.1435 56.8252 65.156 56.4621Z" fill="url(#paint12_linear_1_1141)"/>
<path d="M72.027 52.732C72.171 52.102 72.873 49.589 74.327 48.86C75.2367 49.1206 76.0306 49.6832 76.578 50.455C75.102 52.102 74.665 53.821 73.842 55.955C73.4792 56.7964 73.2352 57.6843 73.117 58.593C73.117 59.177 73.117 59.393 72.973 59.393C72.4979 59.2828 72.0702 59.0239 71.7523 58.6539C71.4343 58.284 71.2426 57.8223 71.205 57.336C71.3589 55.7823 71.6338 54.243 72.027 52.732ZM75.899 46.39C75.7146 46.1637 75.6118 45.8819 75.607 45.59C75.7141 44.5035 75.9667 43.4362 76.358 42.417C77.4984 42.6371 78.5309 43.2362 79.288 44.117C78.2686 45.1453 77.3531 46.2718 76.555 47.48C76.165 47.411 75.827 47.093 75.827 46.827C75.8343 46.6791 75.8581 46.5325 75.898 46.39H75.899Z" fill="url(#paint13_linear_1_1141)"/>
<path d="M82.819 49.5361C82.091 51.3041 79.551 54.7431 79.358 56.2161C80.375 55.1271 82.019 53.0961 82.577 52.5161C83.811 51.2101 86.084 48.8161 87.659 48.8161C88.0364 48.8595 88.3951 49.0037 88.6975 49.2335C89 49.4633 89.235 49.7702 89.378 50.1221C89.378 50.1911 89.112 50.2221 88.678 50.7221C87.805 51.8571 86.161 55.0531 86.161 57.0381C86.161 57.8381 86.378 57.9831 86.761 57.9831C87.099 57.9831 87.561 57.7401 87.778 57.7401C87.9099 57.8683 87.9876 58.0422 87.995 58.2261C87.4053 58.7404 86.6859 59.0831 85.915 59.2171C84.051 59.2171 83.615 58.0821 83.615 56.6511C83.615 55.8511 83.832 54.8601 84.947 52.2941C84.2143 52.6309 83.5493 53.0989 82.985 53.6751C81.5468 55.0596 80.2412 56.5755 79.085 58.2031C78.6516 58.9364 78.1044 59.5963 77.464 60.1581C77.1547 59.9412 76.8953 59.6606 76.7035 59.3351C76.5117 59.0096 76.3919 58.6468 76.352 58.2711C76.6062 56.0491 77.2188 53.883 78.166 51.8571C79.403 49.0291 80.538 47.3331 80.804 47.2111C81.29 47.4268 81.7226 47.747 82.0708 48.1488C82.4191 48.5507 82.6745 49.0243 82.819 49.5361Z" fill="url(#paint14_linear_1_1141)"/>
<path d="M92.158 56.1221C92.158 56.3161 92.135 56.5321 92.135 56.7491C92.135 57.5731 92.329 58.6881 93.247 58.6881C94.989 58.6881 96.659 56.9461 97.673 55.8571C97.8234 55.9803 97.9617 56.1176 98.086 56.2671C96.9135 57.9736 95.2136 59.2484 93.247 59.8961C92.2908 59.865 91.3849 59.46 90.7241 58.7681C90.0632 58.0763 89.7002 57.1527 89.713 56.1961C89.713 52.2261 93.345 47.5541 96.537 47.5541C97.3849 47.7252 98.1323 48.2208 98.62 48.9351C98.379 52.9031 96.273 54.4751 92.158 56.1221ZM92.352 55.2031C94.918 53.9201 96.831 51.9351 96.952 49.7341C95.183 49.9731 93.126 52.2011 92.352 55.2031Z" fill="url(#paint15_linear_1_1141)"/>
<g style="mix-blend-mode:multiply">
<g style="mix-blend-mode:multiply">
<path d="M32.95 41.383C33.5583 41.3135 34.1742 41.4064 34.7349 41.6523C35.2957 41.8982 35.7812 42.2884 36.142 42.783C35.706 41.707 34.528 41.093 32.805 41.093C27.142 41.093 21.84 47.458 21.84 54.093C21.7726 55.5232 22.0706 56.947 22.706 58.23C22.1832 57.0178 21.9375 55.7042 21.987 54.385C21.989 47.744 27.287 41.383 32.95 41.383Z" fill="#C79858"/>
</g>
<g style="mix-blend-mode:multiply">
<path d="M34.791 43.321C34.8004 43.0778 34.7275 42.8385 34.584 42.642C34.6245 42.767 34.6454 42.8975 34.646 43.029C34.646 43.974 34.256 44.529 33.146 45.355C33.1887 45.5792 33.2721 45.7937 33.392 45.988C33.3478 45.8778 33.3143 45.7636 33.292 45.647C34.404 44.821 34.791 44.264 34.791 43.321Z" fill="#C79858"/>
</g>
<g style="mix-blend-mode:multiply">
<path d="M27.917 59.875C29.974 59.416 32.251 56.338 32.517 54.015L32.317 54.061C31.884 56.335 29.732 59.147 27.77 59.583C27.3341 59.5055 26.9241 59.3215 26.5766 59.0472C26.229 58.7729 25.9547 58.417 25.778 58.011C25.9388 58.4826 26.2212 58.9033 26.5969 59.2307C26.9725 59.558 27.4279 59.7803 27.917 59.875Z" fill="#C79858"/>
</g>
<g style="mix-blend-mode:multiply">
<path d="M34.424 51.548C34.6361 51.5388 34.8468 51.5851 35.0355 51.6823C35.2242 51.7794 35.3843 51.9241 35.5 52.102C35.4176 51.8467 35.2533 51.6257 35.0326 51.4733C34.8118 51.3209 34.5469 51.2456 34.279 51.259C32.081 51.4211 29.9232 51.935 27.888 52.781C27.9393 52.93 28.0064 53.0732 28.088 53.208C28.072 53.165 28.052 53.119 28.035 53.073C30.0694 52.2262 32.2265 51.7113 34.424 51.548Z" fill="#C79858"/>
</g>
<g style="mix-blend-mode:multiply">
<path d="M39.171 55.055C39.128 55.199 39.086 55.344 39.046 55.491C41.612 54.208 43.525 52.223 43.646 50.022C43.5855 50.0298 43.5254 50.0408 43.466 50.055C43.193 52.055 41.474 53.841 39.171 55.055Z" fill="#C79858"/>
</g>
<g style="mix-blend-mode:multiply">
<path d="M39.942 58.978C41.687 58.978 43.354 57.236 44.371 56.147C44.45 56.213 44.515 56.275 44.578 56.334C44.6002 56.3132 44.62 56.2901 44.637 56.265C44.5118 56.1163 44.3736 55.9791 44.224 55.855C43.21 56.944 41.54 58.686 39.798 58.686C39.6412 58.6893 39.4864 58.6506 39.3496 58.574C39.2128 58.4973 39.099 58.3854 39.02 58.25C39.0731 58.4554 39.1919 58.6378 39.3584 58.7692C39.5249 58.9007 39.7299 58.974 39.942 58.978Z" fill="#C79858"/>
</g>
<g style="mix-blend-mode:multiply">
<path d="M43.236 47.8471C44.0033 48 44.6877 48.4296 45.159 49.0541C45.159 49.0111 45.169 48.9751 45.169 48.9361C44.6833 48.2211 43.9365 47.7252 43.089 47.5551C39.889 47.5551 36.265 52.2271 36.265 56.1971C36.2569 56.8908 36.4433 57.5729 36.803 58.1661C36.5428 57.6443 36.4079 57.0691 36.409 56.4861C36.408 52.5161 40.045 47.8471 43.236 47.8471Z" fill="#C79858"/>
</g>
<g style="mix-blend-mode:multiply">
<path d="M47.708 52.154C48.942 49.323 50.08 47.626 50.349 47.505C51.071 47.8035 51.6623 48.3504 52.016 49.047C51.6734 48.2227 51.0225 47.5647 50.202 47.213C49.936 47.334 48.802 49.031 47.564 51.859C46.6159 53.8849 46.002 56.0509 45.746 58.273C45.8231 58.6812 45.9649 59.0745 46.166 59.438C46.0453 59.1572 45.9541 58.8647 45.894 58.565C46.1483 56.344 46.7609 54.179 47.708 52.154Z" fill="#C79858"/>
</g>
<g style="mix-blend-mode:multiply">
<path d="M56.301 58.277C56.639 58.277 57.101 58.034 57.318 58.034C57.3359 58.0497 57.3524 58.0671 57.367 58.086C57.3423 57.9513 57.2716 57.8293 57.167 57.741C56.95 57.741 56.491 57.984 56.15 57.984C56.0765 57.9908 56.0024 57.9823 55.9324 57.9591C55.8623 57.9359 55.7979 57.8984 55.743 57.849C55.7502 57.9143 55.7706 57.9774 55.8028 58.0347C55.8351 58.0919 55.8786 58.142 55.9307 58.182C55.9828 58.222 56.0425 58.251 56.1062 58.2674C56.1698 58.2837 56.2361 58.2869 56.301 58.277Z" fill="#C79858"/>
</g>
<g style="mix-blend-mode:multiply">
<path d="M52.115 52.807C53.349 51.501 55.626 49.107 57.197 49.107C57.5238 49.1352 57.8382 49.2452 58.1112 49.427C58.3842 49.6087 58.607 49.8564 58.759 50.147L58.769 50.124C58.6267 49.7722 58.3922 49.4653 58.0903 49.2355C57.7883 49.0057 57.43 48.8614 57.053 48.818C55.478 48.818 53.204 51.21 51.967 52.518C51.467 53.046 50.087 54.739 49.076 55.868C48.9913 56.0757 48.9309 56.2924 48.896 56.514C49.913 55.422 51.557 53.388 52.115 52.807Z" fill="#C79858"/>
</g>
<g style="mix-blend-mode:multiply">
<path d="M54.487 52.5911C54.3684 52.6294 54.2549 52.6821 54.149 52.7481C53.5154 53.9599 53.1285 55.2856 53.011 56.6481C52.9827 57.2213 53.1062 57.7919 53.369 58.3021C53.2149 57.865 53.1427 57.4033 53.156 56.9401C53.154 56.1481 53.374 55.1531 54.487 52.5911Z" fill="#C79858"/>
</g>
<g style="mix-blend-mode:multiply">
<path d="M65.422 55.882C65.379 55.882 65.294 55.944 65.182 56.059C65.166 56.1917 65.1573 56.3252 65.156 56.459C65.155 57.0027 65.3012 57.5366 65.579 58.004C65.4018 57.6082 65.3069 57.1805 65.3 56.747C65.2948 56.454 65.336 56.162 65.422 55.882Z" fill="#C79858"/>
</g>
<g style="mix-blend-mode:multiply">
<path d="M64.431 55.514C65.3822 54.3554 66.1785 53.078 66.8 51.714C67.1724 50.5015 67.8192 49.3911 68.69 48.469C69.4305 48.4881 70.1536 48.6971 70.79 49.076L70.842 48.951C70.1806 48.4486 69.3727 48.1767 68.542 48.177C67.6726 49.0991 67.026 50.2081 66.652 51.419C66.029 52.7829 65.2317 54.0602 64.28 55.219C62.948 57.033 62.295 57.831 61.813 58.027L61.806 58.017C61.8279 58.1296 61.8813 58.2336 61.96 58.317C62.447 58.129 63.099 57.332 64.431 55.514Z" fill="#C79858"/>
</g>
<g style="mix-blend-mode:multiply">
<path d="M59.398 55.785C59.979 53.341 61.698 49.249 63.729 47.773C64.4116 47.7741 65.0805 47.9649 65.661 48.324C65.6837 48.2924 65.7088 48.2627 65.736 48.235C65.132 47.7314 64.3663 47.4632 63.58 47.48C61.549 48.956 59.83 53.051 59.249 55.492C59.1024 56.1685 59.0372 56.86 59.055 57.552C59.1055 57.7453 59.1865 57.9293 59.295 58.097C59.2549 58.0145 59.2214 57.9289 59.195 57.841C59.1786 57.1499 59.2468 56.4595 59.398 55.785Z" fill="#C79858"/>
</g>
<g style="mix-blend-mode:multiply">
<path d="M76.049 46.682C75.9824 46.6112 75.9292 46.5288 75.892 46.439C75.8583 46.5655 75.8375 46.6952 75.83 46.826C75.8435 46.9485 75.8977 47.0629 75.984 47.151L75.974 47.118C75.9831 46.9703 76.0082 46.8241 76.049 46.682Z" fill="#C79858"/>
</g>
<g style="mix-blend-mode:multiply">
<path d="M72.174 53.027C72.318 52.394 73.02 49.881 74.474 49.152C75.283 49.3853 76.0031 49.8563 76.541 50.504L76.58 50.455C76.0326 49.6832 75.2387 49.1206 74.329 48.86C72.876 49.588 72.173 52.102 72.029 52.732C71.6353 54.2416 71.3598 55.7796 71.205 57.332C71.2048 57.6897 71.3091 58.0397 71.505 58.339C71.4061 58.1134 71.3538 57.8702 71.351 57.624C71.505 56.0725 71.7802 54.5355 72.174 53.027Z" fill="#C79858"/>
</g>
<g style="mix-blend-mode:multiply">
<path d="M75.754 45.885C75.8595 44.7982 76.1121 43.7308 76.505 42.712C77.5403 42.9136 78.4913 43.4211 79.235 44.169L79.287 44.117C78.53 43.2362 77.4974 42.6371 76.357 42.417C75.9657 43.4362 75.7131 44.5035 75.606 45.59C75.6142 45.841 75.6913 46.0849 75.829 46.295C75.7832 46.163 75.7579 46.0247 75.754 45.885Z" fill="#C79858"/>
</g>
<g style="mix-blend-mode:multiply">
<path d="M82.723 52.807C83.957 51.501 86.234 49.107 87.808 49.107C88.1344 49.1352 88.4484 49.2453 88.7209 49.4271C88.9934 49.6089 89.2156 49.8565 89.367 50.147L89.38 50.124C89.237 49.7721 89.002 49.4652 88.6995 49.2354C88.3971 49.0056 88.0384 48.8614 87.661 48.818C86.086 48.818 83.812 51.21 82.579 52.518C82.079 53.046 80.696 54.739 79.685 55.868C79.6018 56.0762 79.5415 56.2928 79.505 56.514C80.521 55.422 82.168 53.388 82.723 52.807Z" fill="#C79858"/>
</g>
<g style="mix-blend-mode:multiply">
<path d="M85.098 52.5911C84.9789 52.6281 84.8652 52.6809 84.76 52.7481C84.1241 53.9593 83.7359 55.2851 83.618 56.6481C83.5916 57.2211 83.715 57.7912 83.976 58.3021C83.8219 57.865 83.7497 57.4033 83.763 56.9401C83.766 56.1481 83.982 55.1531 85.098 52.5911Z" fill="#C79858"/>
</g>
<g style="mix-blend-mode:multiply">
<path d="M78.319 52.154C79.553 49.323 80.691 47.626 80.957 47.505C81.6796 47.8025 82.2713 48.3497 82.624 49.047C82.2824 48.222 81.6312 47.5637 80.81 47.213C80.544 47.334 79.41 49.031 78.172 51.859C77.2248 53.885 76.6122 56.0511 76.358 58.273C76.4337 58.6816 76.5755 59.0751 76.778 59.438C76.6556 59.1575 76.5631 58.8649 76.502 58.565C76.7577 56.344 77.3713 54.1789 78.319 52.154Z" fill="#C79858"/>
</g>
<g style="mix-blend-mode:multiply">
<path d="M86.909 58.277C87.25 58.277 87.709 58.034 87.926 58.034C87.9455 58.048 87.9622 58.0657 87.975 58.086C87.9508 57.9525 87.8825 57.831 87.781 57.741C87.561 57.741 87.102 57.984 86.764 57.984C86.6901 57.9905 86.6156 57.9819 86.5451 57.9587C86.4746 57.9355 86.4096 57.8982 86.354 57.849C86.3613 57.914 86.3815 57.9769 86.4136 58.0339C86.4456 58.0909 86.4888 58.1409 86.5406 58.1808C86.5924 58.2208 86.6518 58.2499 86.715 58.2664C86.7783 58.2829 86.8443 58.2865 86.909 58.277Z" fill="#C79858"/>
</g>
<g style="mix-blend-mode:multiply">
<path d="M93.392 58.978C95.137 58.978 96.807 57.236 97.821 56.147C97.9 56.213 97.965 56.275 98.028 56.334C98.0502 56.3133 98.07 56.2901 98.087 56.265C97.9627 56.1155 97.8244 55.9782 97.674 55.855C96.66 56.944 94.99 58.686 93.248 58.686C93.0912 58.6893 92.9364 58.6506 92.7996 58.574C92.6628 58.4973 92.549 58.3854 92.47 58.25C92.5231 58.4554 92.6419 58.6378 92.8084 58.7692C92.9749 58.9007 93.1799 58.974 93.392 58.978Z" fill="#C79858"/>
</g>
<g style="mix-blend-mode:multiply">
<path d="M96.686 47.8471C97.4536 47.9992 98.1383 48.4289 98.609 49.0541C98.609 49.0111 98.619 48.9751 98.622 48.9361C98.1343 48.2217 97.3869 47.7262 96.539 47.5551C93.347 47.5551 89.715 52.2271 89.715 56.1971C89.7063 56.8912 89.8939 57.5738 90.256 58.1661C89.9938 57.6448 89.8568 57.0695 89.856 56.4861C89.858 52.5161 93.49 47.8471 96.686 47.8471Z" fill="#C79858"/>
</g>
<g style="mix-blend-mode:multiply">
<path d="M92.625 55.055C92.579 55.199 92.536 55.344 92.497 55.491C95.066 54.208 96.976 52.223 97.097 50.022C97.038 50.029 96.979 50.042 96.917 50.055C96.644 52.055 94.925 53.841 92.625 55.055Z" fill="#C79858"/>
</g>
</g>
<path d="M38.213 71.0591C38.1396 69.9456 38.4448 68.8401 39.079 67.9221C39.3739 67.557 39.7514 67.2675 40.1804 67.0774C40.6095 66.8873 41.0776 66.8022 41.546 66.8291C42.0622 66.8155 42.5748 66.918 43.046 67.1291C43.46 67.326 43.8194 67.6213 44.093 67.9891C44.3821 68.3885 44.5894 68.8412 44.703 69.3211C44.843 69.8889 44.9102 70.4723 44.903 71.0571C44.9755 72.1723 44.6677 73.2792 44.03 74.1971C43.7315 74.5622 43.3508 74.8515 42.9191 75.0415C42.4874 75.2314 42.0169 75.3166 41.546 75.2901C41.0359 75.3029 40.5295 75.1986 40.066 74.9851C39.6534 74.7891 39.2959 74.4936 39.026 74.1251C38.7363 73.7254 38.5277 73.2729 38.412 72.7931C38.2727 72.2258 38.2058 71.6431 38.213 71.0591ZM39.243 71.0591C39.2417 71.4913 39.287 71.9225 39.378 72.3451C39.4559 72.723 39.5954 73.0855 39.791 73.4181C39.9705 73.7157 40.2179 73.9665 40.513 74.1501C40.8233 74.3411 41.1828 74.437 41.547 74.4261C41.8771 74.4387 42.2052 74.3701 42.5026 74.2265C42.8 74.0828 43.0577 73.8684 43.253 73.6021C43.7234 72.8413 43.9404 71.951 43.873 71.0591C43.8739 70.6288 43.8286 70.1997 43.738 69.7791C43.6604 69.3991 43.5184 69.0351 43.318 68.7031C43.1372 68.4037 42.8877 68.1517 42.59 67.9681C42.2761 67.7778 41.914 67.682 41.547 67.6921C41.2192 67.6795 40.8934 67.7481 40.5986 67.8919C40.3037 68.0356 40.049 68.2501 39.857 68.5161C39.3905 69.2783 39.1757 70.168 39.243 71.0591ZM45.789 77.1481C45.6105 77.2033 45.4269 77.2408 45.241 77.2601C45.0614 77.2798 44.8808 77.2899 44.7 77.2901C44.3174 77.2912 43.9358 77.2506 43.562 77.1691C43.195 77.0871 42.834 76.9951 42.489 76.9001C42.144 76.8051 41.807 76.7101 41.489 76.6311C41.1915 76.5512 40.8851 76.5092 40.577 76.5061C40.3953 76.5063 40.2144 76.5305 40.039 76.5781V75.7251C40.147 75.7021 40.256 75.6821 40.354 75.6661C40.4582 75.65 40.5636 75.6423 40.669 75.6431C40.9987 75.6441 41.3271 75.6847 41.647 75.7641C41.969 75.8491 42.3 75.9351 42.635 76.0331C42.97 76.1311 43.314 76.2201 43.665 76.3021C44.0286 76.3863 44.4008 76.4282 44.774 76.4271C45.1164 76.4271 45.4577 76.3875 45.791 76.3091L45.789 77.1481Z" fill="url(#paint16_linear_1_1141)"/>
<path d="M51.249 66.9711H52.184V72.4271C52.1924 72.8594 52.1268 73.2899 51.99 73.7001C51.8793 74.0334 51.6916 74.3359 51.442 74.5831C51.1982 74.8165 50.9039 74.9906 50.582 75.0921C50.2232 75.2044 49.849 75.2598 49.473 75.2561C48.6883 75.3143 47.9095 75.0819 47.285 74.6031C47.0256 74.3448 46.8253 74.0333 46.6979 73.6901C46.5705 73.3468 46.519 72.9801 46.547 72.6151V66.9711H47.518V72.1611C47.5119 72.5126 47.5526 72.8633 47.639 73.2041C47.707 73.4596 47.8341 73.6957 48.01 73.8931C48.1767 74.073 48.3888 74.2046 48.624 74.2741C48.9031 74.3564 49.1931 74.3952 49.484 74.3891C49.7346 74.4141 49.9876 74.3802 50.2228 74.2903C50.458 74.2004 50.669 74.0568 50.839 73.8711C51.1578 73.3611 51.3018 72.7612 51.249 72.1621V66.9711Z" fill="url(#paint17_linear_1_1141)"/>
<path d="M58.056 72.883H55.056L54.242 75.15H53.271L56.367 66.847H56.81L59.92 75.154H58.89L58.056 72.883ZM55.369 72.043H57.769L56.863 69.553L56.571 68.313H56.558L56.269 69.576L55.369 72.043Z" fill="url(#paint18_linear_1_1141)"/>
<path d="M65.848 75.1501H61.009V66.9711H61.98V74.2881H65.848V75.1501Z" fill="url(#paint19_linear_1_1141)"/>
<path d="M67.273 66.9711H68.244V75.1501H67.273V66.9711Z" fill="url(#paint20_linear_1_1141)"/>
<path d="M75.738 67.8311H73.189V75.1511H72.221V67.8311H69.67V66.9711H75.737L75.738 67.8311Z" fill="url(#paint21_linear_1_1141)"/>
<path d="M78.602 71.9021L75.902 66.9711H77.034L78.95 70.5471L79.15 71.2591H79.163L79.376 70.5211L81.217 66.9711H82.244L79.567 71.8921V75.1501H78.599L78.602 71.9021Z" fill="url(#paint22_linear_1_1141)"/>
<g style="mix-blend-mode:multiply">
<path d="M53.107 29.8251H52.959V36.8521H53.107V29.8251Z" fill="#C79858"/>
</g>
<g style="mix-blend-mode:multiply">
<path d="M56.481 28.9611V28.6691H50.414V29.5341H50.56V28.9601L56.481 28.9611Z" fill="#C79858"/>
</g>
<g style="mix-blend-mode:multiply">
<path d="M62.727 33.392H62.581V36.852H62.727V33.392Z" fill="#C79858"/>
</g>
<g style="mix-blend-mode:multiply">
<path d="M57.829 28.9611H58.653V28.6691H57.682V36.8521H57.829V28.9611Z" fill="#C79858"/>
</g>
<g style="mix-blend-mode:multiply">
<path d="M62.727 32.5231V28.9611H63.551V28.6691H62.582V32.2321H58.799V32.5241L62.727 32.5231Z" fill="#C79858"/>
</g>
<g style="mix-blend-mode:multiply">
<path d="M65.684 28.9611H69.992V28.6691H65.538V36.8521H65.684V28.9611Z" fill="#C79858"/>
</g>
<g style="mix-blend-mode:multiply">
<path d="M70.049 35.9871H66.653V36.2751H70.049V35.9871Z" fill="#C79858"/>
</g>
<g style="mix-blend-mode:multiply">
<path d="M69.698 32.209H66.653V32.501H69.698V32.209Z" fill="#C79858"/>
</g>
<g style="mix-blend-mode:multiply">
<path d="M43.873 71.0601C43.9404 71.952 43.7234 72.8423 43.253 73.6031C43.0577 73.8694 42.8 74.0838 42.5026 74.2275C42.2052 74.3711 41.8771 74.4397 41.547 74.4271C41.1831 74.4379 40.824 74.3419 40.514 74.1511C40.2222 73.9697 39.978 73.7211 39.802 73.4261C39.848 73.5261 39.887 73.6261 39.94 73.7081C40.1174 74.0071 40.364 74.2592 40.659 74.4431C40.9704 74.6341 41.3309 74.73 41.696 74.7191C42.026 74.7313 42.354 74.6626 42.6514 74.519C42.9488 74.3754 43.2065 74.1612 43.402 73.8951C43.8707 73.1351 44.0867 72.2463 44.019 71.3561C44.0215 70.9247 43.9762 70.4944 43.884 70.0731C43.8064 69.6931 43.6644 69.3292 43.464 68.9971C43.5888 69.246 43.6825 69.5093 43.743 69.7811C43.8319 70.2015 43.8755 70.6303 43.873 71.0601Z" fill="#C79858"/>
</g>
<g style="mix-blend-mode:multiply">
<path d="M40.5 75.958C40.6042 75.9418 40.7096 75.9342 40.815 75.935C41.1434 75.9361 41.4704 75.9767 41.789 76.056C42.114 76.141 42.445 76.227 42.78 76.325C43.115 76.423 43.456 76.512 43.807 76.594C44.1708 76.6767 44.5429 76.7173 44.916 76.715C45.2093 76.715 45.5018 76.6852 45.789 76.626V76.308C45.4557 76.3864 45.1144 76.426 44.772 76.426C44.3988 76.4272 44.0266 76.3853 43.663 76.301C43.312 76.219 42.963 76.13 42.633 76.032C42.303 75.934 41.967 75.848 41.645 75.763C41.3251 75.6836 40.9967 75.643 40.667 75.642C40.5616 75.6413 40.4562 75.649 40.352 75.665C40.252 75.681 40.145 75.701 40.037 75.724V76.577C40.0859 76.5683 40.1354 76.5629 40.185 76.561V76.016C40.293 75.994 40.398 75.9747 40.5 75.958Z" fill="#C79858"/>
</g>
<g style="mix-blend-mode:multiply">
<path d="M38.361 71.3541C38.2877 70.2397 38.5928 69.1333 39.227 68.2141C39.5216 67.8487 39.8991 67.559 40.3282 67.3689C40.7573 67.1788 41.2255 67.0938 41.694 67.1211C42.2078 67.1084 42.718 67.2109 43.187 67.4211C43.601 67.618 43.9604 67.9133 44.234 68.2811C44.3303 68.4176 44.4159 68.5613 44.49 68.7111C44.3839 68.4563 44.2497 68.2142 44.09 67.9891C43.8164 67.6213 43.457 67.326 43.043 67.1291C42.5718 66.918 42.0592 66.8155 41.543 66.8291C41.0746 66.8022 40.6064 66.8873 40.1774 67.0774C39.7484 67.2675 39.3709 67.557 39.076 67.9221C38.4418 68.8401 38.1366 69.9456 38.21 71.0591C38.203 71.6439 38.2702 72.2272 38.41 72.7951C38.4918 73.1091 38.6131 73.4115 38.771 73.6951C38.6839 73.4973 38.6114 73.2934 38.554 73.0851C38.4183 72.5183 38.3535 71.9368 38.361 71.3541Z" fill="#C79858"/>
</g>
<g style="mix-blend-mode:multiply">
<path d="M46.693 67.2631H47.517V66.9711H46.546V72.6141C46.5312 73.1167 46.6451 73.6148 46.877 74.0611C46.7478 73.69 46.6855 73.2989 46.693 72.9061V67.2631Z" fill="#C79858"/>
</g>
<g style="mix-blend-mode:multiply">
<path d="M48.768 74.5661C49.0469 74.6496 49.337 74.6894 49.628 74.6841C49.8794 74.7087 50.133 74.6744 50.3688 74.5838C50.6045 74.4931 50.8159 74.3487 50.986 74.1621C51.3034 73.6515 51.4472 73.052 51.396 72.4531V67.2631H52.183V66.9711H51.248V72.1611C51.3008 72.7602 51.1568 73.3601 50.838 73.8701C50.668 74.0558 50.457 74.1994 50.2218 74.2893C49.9866 74.3792 49.7336 74.4131 49.483 74.3881C49.1922 74.3942 48.9021 74.3554 48.623 74.2731C48.3878 74.2036 48.1757 74.072 48.009 73.8921C47.9546 73.8293 47.9052 73.7624 47.861 73.6921C47.9276 73.8749 48.0265 74.0443 48.153 74.1921C48.3219 74.3682 48.5339 74.4971 48.768 74.5661Z" fill="#C79858"/>
</g>
<g style="mix-blend-mode:multiply">
<path d="M56.713 68.605H56.702L56.668 68.749L56.857 69.549L57.765 72.039H55.62L55.514 72.331H57.914L57.006 69.841L56.713 68.605Z" fill="#C79858"/>
</g>
<g style="mix-blend-mode:multiply">
<path d="M58.162 73.176L58.892 75.15H58.929L58.2 73.176H58.162Z" fill="#C79858"/>
</g>
<g style="mix-blend-mode:multiply">
<path d="M56.921 67.134L56.812 66.843H56.368L53.268 75.151H53.523L56.512 67.134H56.921Z" fill="#C79858"/>
</g>
<g style="mix-blend-mode:multiply">
<path d="M65.847 74.2881H62.124V74.5801H65.847V74.2881Z" fill="#C79858"/>
</g>
<g style="mix-blend-mode:multiply">
<path d="M61.979 67.261V66.969H61.008V75.149H61.155V67.261H61.979Z" fill="#C79858"/>
</g>
<g style="mix-blend-mode:multiply">
<path d="M68.244 67.261V66.969H67.273V75.149H67.419V67.261H68.244Z" fill="#C79858"/>
</g>
<g style="mix-blend-mode:multiply">
<path d="M75.737 67.261V66.969H69.669V67.835H69.815V67.265L75.737 67.261Z" fill="#C79858"/>
</g>
<g style="mix-blend-mode:multiply">
<path d="M72.365 68.124H72.219V75.151H72.365V68.124Z" fill="#C79858"/>
</g>
<g style="mix-blend-mode:multiply">
<path d="M78.601 71.927V75.15H78.747V72.193L78.601 71.927Z" fill="#C79858"/>
</g>
<g style="mix-blend-mode:multiply">
<path d="M79.311 71.552L79.526 70.815L81.365 67.262H82.089L82.247 66.97H81.218L79.379 70.52L79.191 71.17L79.299 71.551L79.311 71.552Z" fill="#C79858"/>
</g>
<g style="mix-blend-mode:multiply">
<path d="M78.963 70.587L78.95 70.545L77.034 66.969H75.9L76.06 67.261H77.18L78.963 70.587Z" fill="#C79858"/>
</g>
<path d="M45.969 36.255C46.2873 36.9536 46.7672 37.5664 47.369 38.043C47.861 38.424 48.269 38.555 48.403 38.407C48.695 38.107 47.744 36.807 47.143 35.434C46.542 34.061 46.513 33.262 46.113 33.367C45.929 33.423 45.726 33.731 45.641 34.246C45.5489 34.9334 45.6631 35.6326 45.969 36.255Z" fill="url(#paint23_linear_1_1141)"/>
<path d="M44.772 39.0431C46.813 38.6131 48.21 38.0431 48.401 38.4061C48.572 38.7311 47.453 39.9251 45.396 40.5421C44.4458 40.8224 43.4456 40.8907 42.466 40.7421C41.633 40.6041 41.055 40.2921 40.983 40.0371C40.825 39.4971 42.738 39.4801 44.772 39.0431Z" fill="url(#paint24_linear_1_1141)"/>
<path d="M43.722 34.1681C43.6581 34.9623 43.8054 35.7593 44.149 36.4781C44.441 37.0591 44.779 37.3611 44.966 37.2781C45.347 37.1171 44.956 35.5191 45.124 34.0001C45.292 32.4811 45.646 31.5391 45.242 31.4441C44.896 31.3661 43.879 32.3901 43.722 34.1681Z" fill="url(#paint25_linear_1_1141)"/>
<path d="M41.317 36.015C43.387 36.806 44.933 36.858 44.969 37.278C44.982 37.472 44.618 37.718 43.952 37.862C43.0311 38.0349 42.0821 37.982 41.186 37.708C40.1447 37.4036 39.1858 36.8676 38.381 36.14C37.708 35.52 37.374 34.94 37.449 34.693C37.606 34.158 39.253 35.237 41.317 36.015Z" fill="url(#paint26_linear_1_1141)"/>
<path d="M42.767 31.081C42.3502 31.7921 42.1 32.5884 42.035 33.41C42.002 34.079 42.15 34.532 42.353 34.558C42.76 34.607 43.222 33.029 44.085 31.595C44.925 30.148 45.647 29.131 45.312 28.908C45.008 28.709 43.699 29.47 42.767 31.081Z" fill="url(#paint27_linear_1_1141)"/>
<path d="M39.775 31.5891C41.219 33.2431 42.518 34.1891 42.354 34.5581C42.269 34.7421 41.826 34.7581 41.17 34.5221C40.2836 34.1678 39.4868 33.6214 38.837 32.9221C37.19 31.2221 36.53 29.1221 36.865 28.8311C37.216 28.4831 38.328 29.9621 39.775 31.5891Z" fill="url(#paint28_linear_1_1141)"/>
<path d="M43.121 27.711C41.684 28.958 41.011 30.582 41.366 30.811C41.721 31.04 42.833 29.85 44.175 28.665C45.507 27.465 46.514 26.542 46.255 26.244C46.008 25.963 44.538 26.452 43.121 27.711Z" fill="url(#paint29_linear_1_1141)"/>
<path d="M40.132 27.1741C40.952 29.1161 41.681 30.5501 41.366 30.8131C41.051 31.0761 39.722 30.0131 38.804 27.9651C37.885 25.9371 37.774 23.9721 38.164 23.8081C38.574 23.6301 39.299 25.2481 40.132 27.1741Z" fill="url(#paint30_linear_1_1141)"/>
<path d="M44.444 24.532C42.744 25.408 41.626 26.678 41.882 27.006C42.138 27.334 43.582 26.589 45.215 25.723C46.848 24.857 48.06 24.102 47.869 23.768C47.678 23.434 46.137 23.65 44.444 24.532Z" fill="url(#paint31_linear_1_1141)"/>
<path d="M41.684 23.2691C42.032 25.2871 42.265 26.8621 41.884 27.0061C41.503 27.1501 40.611 25.7331 40.224 23.6331C39.837 21.5331 40.089 19.6991 40.5 19.6431C40.911 19.5871 41.323 21.2641 41.684 23.2691Z" fill="url(#paint32_linear_1_1141)"/>
<path d="M44.896 21.979C43.961 23.629 43.096 24.948 42.708 24.804C42.32 24.66 42.623 23.004 43.608 21.261C44.593 19.518 45.816 18.416 46.121 18.695C46.464 18.908 45.813 20.322 44.896 21.979Z" fill="url(#paint33_linear_1_1141)"/>
<path d="M74.495 36.255C74.1755 36.9528 73.6958 37.5654 73.095 38.043C72.603 38.424 72.195 38.555 72.061 38.407C71.769 38.107 72.72 36.807 73.321 35.434C73.922 34.061 73.951 33.262 74.351 33.367C74.535 33.423 74.741 33.731 74.824 34.246C74.913 34.9334 74.7986 35.6318 74.495 36.255Z" fill="url(#paint34_linear_1_1141)"/>
<path d="M75.691 39.0431C73.65 38.6131 72.253 38.0431 72.062 38.4061C71.891 38.7311 73.01 39.9251 75.067 40.5421C76.0163 40.8224 77.0155 40.8907 77.994 40.7421C78.831 40.6041 79.408 40.2921 79.48 40.0371C79.634 39.4971 77.72 39.4801 75.691 39.0431Z" fill="url(#paint35_linear_1_1141)"/>
<path d="M76.737 34.1681C76.8011 34.9623 76.6537 35.7593 76.31 36.4781C76.018 37.0591 75.68 37.3611 75.493 37.2781C75.112 37.1171 75.503 35.5191 75.332 34.0001C75.181 32.4941 74.814 31.5391 75.217 31.4441C75.566 31.3661 76.583 32.3901 76.737 34.1681Z" fill="url(#paint36_linear_1_1141)"/>
<path d="M79.149 36.015C77.075 36.806 75.53 36.858 75.494 37.278C75.478 37.472 75.848 37.718 76.511 37.862C77.4319 38.0349 78.381 37.982 79.277 37.708C80.318 37.4028 81.2768 36.8669 82.082 36.14C82.755 35.52 83.089 34.94 83.014 34.693C82.857 34.158 81.207 35.237 79.149 36.015Z" fill="url(#paint37_linear_1_1141)"/>
<path d="M77.696 31.081C78.1143 31.7914 78.3646 32.5881 78.428 33.41C78.464 34.079 78.313 34.532 78.11 34.558C77.703 34.607 77.241 33.029 76.378 31.595C75.538 30.148 74.816 29.131 75.151 28.908C75.455 28.709 76.761 29.47 77.696 31.081Z" fill="url(#paint38_linear_1_1141)"/>
<path d="M80.688 31.5891C79.244 33.2431 77.942 34.1891 78.109 34.5581C78.194 34.7421 78.637 34.7581 79.293 34.5221C80.179 34.1671 80.9757 33.6207 81.626 32.9221C83.273 31.2221 83.933 29.1221 83.595 28.8311C83.247 28.4831 82.135 29.9621 80.688 31.5891Z" fill="url(#paint39_linear_1_1141)"/>
<path d="M77.342 27.711C78.779 28.958 79.452 30.582 79.097 30.811C78.742 31.04 77.63 29.85 76.288 28.665C74.956 27.465 73.949 26.542 74.208 26.244C74.454 25.963 75.924 26.452 77.342 27.711Z" fill="url(#paint40_linear_1_1141)"/>
<path d="M80.33 27.1741C79.506 29.1161 78.785 30.5501 79.096 30.8131C79.407 31.0761 80.74 30.0131 81.658 27.9651C82.573 25.9371 82.688 23.9721 82.294 23.8081C81.9 23.6441 81.163 25.2481 80.33 27.1741Z" fill="url(#paint41_linear_1_1141)"/>
<path d="M76.019 24.532C77.719 25.408 78.834 26.678 78.581 27.006C78.328 27.334 76.881 26.589 75.248 25.723C73.615 24.857 72.403 24.102 72.594 23.768C72.785 23.434 74.326 23.65 76.019 24.532Z" fill="url(#paint42_linear_1_1141)"/>
<path d="M78.779 23.2691C78.431 25.2871 78.198 26.8621 78.579 27.0061C78.96 27.1501 79.852 25.7331 80.239 23.6331C80.626 21.5331 80.374 19.6991 79.963 19.6431C79.552 19.5871 79.143 21.2641 78.779 23.2691Z" fill="url(#paint43_linear_1_1141)"/>
<path d="M75.566 21.979C76.501 23.629 77.374 24.948 77.754 24.804C78.134 24.66 77.839 23.004 76.854 21.261C75.869 19.518 74.646 18.416 74.341 18.695C73.998 18.908 74.644 20.322 75.566 21.979Z" fill="url(#paint44_linear_1_1141)"/>
<g style="mix-blend-mode:screen">
<path d="M60.358 83.792L61.532 86.169L64.156 86.55L62.256 88.399L62.705 91.014L60.358 89.78L58.013 91.014L58.46 88.399L56.56 86.55L59.184 86.169L60.358 83.792Z" fill="#AE9557"/>
</g>
<g style="mix-blend-mode:screen">
<path d="M69.089 84.509L70.031 86.416L72.131 86.716L70.611 88.199L70.97 90.291L69.088 89.304L67.209 90.291L67.568 88.199L66.046 86.716L68.146 86.416L69.089 84.509Z" fill="#AE9557"/>
</g>
<g style="mix-blend-mode:screen">
<path d="M76.67 85.228L77.378 86.66L78.959 86.891L77.815 88.006L78.086 89.582L76.67 88.836L75.255 89.582L75.526 88.006L74.382 86.891L75.963 86.66L76.67 85.228Z" fill="#AE9557"/>
</g>
<g style="mix-blend-mode:screen">
<path d="M51.634 84.509L50.692 86.416L48.592 86.716L50.112 88.199L49.753 90.291L51.635 89.304L53.514 90.291L53.155 88.199L54.677 86.716L52.577 86.416L51.634 84.509Z" fill="#AE9557"/>
</g>
<g style="mix-blend-mode:screen">
<path d="M44.054 85.228L43.346 86.66L41.765 86.891L42.909 88.006L42.638 89.582L44.054 88.836L45.468 89.582L45.197 88.006L46.342 86.891L44.759 86.66L44.054 85.228Z" fill="#AE9557"/>
</g>
<path d="M60.301 83.561L61.475 85.938L64.099 86.319L62.199 88.171L62.648 90.785L60.299 89.552L57.952 90.785L58.401 88.171L56.501 86.319L59.125 85.938L60.301 83.561Z" fill="url(#paint45_linear_1_1141)"/>
<path d="M69.031 84.2781L69.971 86.1851L72.071 86.4851L70.553 87.9681L70.912 90.0681L69.031 89.0781L67.148 90.0681L67.507 87.9681L65.987 86.4851L68.087 86.1851L69.031 84.2781Z" fill="url(#paint46_linear_1_1141)"/>
<path d="M76.556 84.9971L77.264 86.4291L78.845 86.6601L77.701 87.7751L77.97 89.3511L76.555 88.6081L75.141 89.3511L75.41 87.7751L74.266 86.6601L75.847 86.4291L76.556 84.9971Z" fill="url(#paint47_linear_1_1141)"/>
<path d="M51.519 84.2781L50.577 86.1851L48.477 86.4851L49.997 87.9681L49.64 90.0681L51.521 89.0781L53.402 90.0681L53.043 87.9681L54.565 86.4851L52.465 86.1851L51.519 84.2781Z" fill="url(#paint48_linear_1_1141)"/>
<path d="M43.938 84.9971L43.23 86.4291L41.649 86.6601L42.793 87.7751L42.524 89.3511L43.938 88.6081L45.353 89.3511L45.082 87.7751L46.227 86.6601L44.644 86.4291L43.938 84.9971Z" fill="url(#paint49_linear_1_1141)"/>
<g style="mix-blend-mode:multiply">
<g style="mix-blend-mode:multiply">
<path d="M58.386 88.271L57.954 90.786L58.124 90.696L58.518 88.396L58.386 88.271Z" fill="#C79858"/>
</g>
<g style="mix-blend-mode:multiply">
<path d="M60.416 83.792L60.301 83.561L59.128 85.938L56.504 86.319L56.723 86.534L59.243 86.169L60.416 83.792Z" fill="#C79858"/>
</g>
<g style="mix-blend-mode:multiply">
<path d="M63.911 86.505L64.1 86.319L61.478 85.938L61.592 86.169L63.911 86.505Z" fill="#C79858"/>
</g>
<g style="mix-blend-mode:multiply">
<path d="M69.145 84.5091L69.031 84.2781L68.089 86.1851L65.989 86.4851L66.208 86.7001L68.208 86.4121L69.145 84.5091Z" fill="#C79858"/>
</g>
<g style="mix-blend-mode:multiply">
<path d="M67.491 88.0751L67.148 90.0681L67.318 89.9781L67.618 88.2031L67.491 88.0751Z" fill="#C79858"/>
</g>
<g style="mix-blend-mode:multiply">
<path d="M71.88 86.6751L72.071 86.4891L69.971 86.1891L70.083 86.4201L71.88 86.6751Z" fill="#C79858"/>
</g>
<g style="mix-blend-mode:multiply">
<path d="M75.394 87.8771L75.141 89.3511L75.311 89.2611L75.526 88.0051L75.394 87.8771Z" fill="#C79858"/>
</g>
<g style="mix-blend-mode:multiply">
<path d="M76.665 85.2281L76.551 84.9971L75.843 86.4291L74.262 86.6601L74.481 86.8751L75.958 86.6601L76.665 85.2281Z" fill="#C79858"/>
</g>
<g style="mix-blend-mode:multiply">
<path d="M78.655 86.845L78.846 86.659L77.265 86.428L77.379 86.659L78.655 86.845Z" fill="#C79858"/>
</g>
<g style="mix-blend-mode:multiply">
<path d="M51.634 84.5091L51.52 84.2781L50.578 86.1851L48.478 86.4851L48.699 86.7001L50.699 86.4121L51.634 84.5091Z" fill="#C79858"/>
</g>
<g style="mix-blend-mode:multiply">
<path d="M49.98 88.0751L49.639 90.0681L49.807 89.9781L50.107 88.2031L49.98 88.0751Z" fill="#C79858"/>
</g>
<g style="mix-blend-mode:multiply">
<path d="M54.372 86.6751L54.563 86.4891L52.463 86.1891L52.577 86.4201L54.372 86.6751Z" fill="#C79858"/>
</g>
<g style="mix-blend-mode:multiply">
<path d="M42.775 87.8771L42.524 89.3511L42.692 89.2611L42.909 88.0051L42.775 87.8771Z" fill="#C79858"/>
</g>
<g style="mix-blend-mode:multiply">
<path d="M46.037 86.845L46.228 86.659L44.647 86.428L44.761 86.659L46.037 86.845Z" fill="#C79858"/>
</g>
<g style="mix-blend-mode:multiply">
<path d="M44.052 85.2281L43.938 84.9971L43.23 86.4291L41.649 86.6601L41.869 86.8751L43.346 86.6601L44.052 85.2281Z" fill="#C79858"/>
</g>
</g>
<path d="M39.053 89.3971C38.989 89.3968 38.9261 89.3797 38.8708 89.3474C38.8155 89.3151 38.7697 89.2687 38.738 89.2131L24.538 64.6131C24.513 64.5718 24.4966 64.526 24.4897 64.4783C24.4828 64.4306 24.4855 64.382 24.4977 64.3353C24.5099 64.2887 24.5314 64.245 24.5608 64.2068C24.5902 64.1686 24.627 64.1368 24.669 64.1131C24.7105 64.0883 24.7565 64.0721 24.8044 64.0654C24.8523 64.0588 24.901 64.0619 24.9477 64.0745C24.9943 64.0871 25.038 64.1089 25.076 64.1387C25.114 64.1686 25.1457 64.2058 25.169 64.2481L39.369 88.8421C39.394 88.8834 39.4104 88.9295 39.4172 88.9773C39.4239 89.0252 39.421 89.0739 39.4085 89.1206C39.396 89.1673 39.3742 89.211 39.3443 89.249C39.3145 89.2871 39.2774 89.3187 39.235 89.3421C39.1811 89.3779 39.1178 89.397 39.053 89.3971Z" fill="url(#paint50_linear_1_1141)"/>
<path d="M94.475 38.656C94.4111 38.6554 94.3484 38.6381 94.2931 38.6058C94.2379 38.5735 94.192 38.5274 94.16 38.472L81.2 16.024H39.263L26.303 38.472C26.2538 38.5554 26.1736 38.6159 26.08 38.6405C25.9863 38.665 25.8868 38.6515 25.803 38.603C25.761 38.5793 25.7242 38.5474 25.6948 38.5093C25.6654 38.4711 25.6439 38.4274 25.6317 38.3807C25.6195 38.3341 25.6168 38.2855 25.6237 38.2378C25.6306 38.1901 25.6471 38.1443 25.672 38.103L38.737 15.474C38.7683 15.4183 38.8142 15.3722 38.8696 15.3405C38.9251 15.3088 38.9881 15.2927 39.052 15.294H81.409C81.4729 15.2927 81.5359 15.3088 81.5914 15.3405C81.6469 15.3722 81.6927 15.4183 81.724 15.474L94.79 38.113C94.8145 38.1544 94.8304 38.2002 94.8371 38.2478C94.8437 38.2954 94.8409 38.3438 94.8287 38.3903C94.8165 38.4368 94.7952 38.4804 94.7661 38.5186C94.737 38.5569 94.7006 38.5889 94.659 38.613C94.6023 38.6427 94.539 38.6575 94.475 38.656Z" fill="url(#paint51_linear_1_1141)"/>
<path d="M81.41 89.397C81.345 89.3972 81.2813 89.3792 81.226 89.345C81.1841 89.3212 81.1475 89.2893 81.1181 89.2511C81.0888 89.2129 81.0673 89.1692 81.0551 89.1226C81.0429 89.076 81.0402 89.0275 81.047 88.9798C81.0539 88.9321 81.0702 88.8863 81.095 88.845L95.295 64.251C95.3184 64.2087 95.35 64.1715 95.388 64.1417C95.4261 64.1119 95.4697 64.09 95.5164 64.0774C95.563 64.0648 95.6118 64.0617 95.6596 64.0683C95.7075 64.075 95.7536 64.0912 95.795 64.116C95.8373 64.1394 95.8744 64.1711 95.9041 64.2093C95.9338 64.2474 95.9554 64.2912 95.9676 64.3379C95.9799 64.3847 95.9825 64.4334 95.9753 64.4812C95.9682 64.529 95.9514 64.5749 95.926 64.616L81.726 89.216C81.6936 89.271 81.6474 89.3166 81.592 89.3483C81.5366 89.3801 81.4739 89.3968 81.41 89.397Z" fill="url(#paint52_linear_1_1141)"/>
<path style="mix-blend-mode:screen" d="M30.0329 91.243C28.4019 92.122 24.5959 88.231 21.5329 82.552C18.4699 76.873 17.3069 71.552 18.9329 70.672C20.5589 69.792 24.3729 73.684 27.4329 79.363C30.4929 85.042 31.6669 90.364 30.0329 91.243Z" fill="url(#paint53_radial_1_1141)"/>
<path style="mix-blend-mode:screen" d="M112.268 42.8619C110.624 43.7179 106.868 39.7779 103.882 34.0529C100.896 28.3279 99.804 22.9989 101.448 22.1429C103.092 21.2869 106.848 25.2269 109.834 30.9489C112.82 36.6709 113.911 42.0019 112.268 42.8619Z" fill="url(#paint54_radial_1_1141)"/>
</g>
<defs>
<linearGradient id="paint0_linear_1_1141" x1="30.1165" y1="0.208409" x2="77.9656" y2="109.886" gradientUnits="userSpaceOnUse">
<stop offset="0.029" stop-color="#C8953E"/>
<stop offset="0.129" stop-color="#DFC760"/>
<stop offset="0.181" stop-color="#D4B34F"/>
<stop offset="0.291" stop-color="#C28F32"/>
<stop offset="0.381" stop-color="#B77A1F"/>
<stop offset="0.439" stop-color="#B37219"/>
<stop offset="0.492" stop-color="#B97E22"/>
<stop offset="0.589" stop-color="#CB9E3D"/>
<stop offset="0.718" stop-color="#E7D367"/>
<stop offset="0.76" stop-color="#F2E677"/>
<stop offset="1" stop-color="#CB9F3D"/>
</linearGradient>
<linearGradient id="paint1_linear_1_1141" x1="34.6385" y1="8.02405" x2="75.0424" y2="101.34" gradientUnits="userSpaceOnUse">
<stop stop-color="#CB9F3D"/>
<stop offset="0.24" stop-color="#F2E677"/>
<stop offset="0.282" stop-color="#E7D367"/>
<stop offset="0.411" stop-color="#CB9E3D"/>
<stop offset="0.508" stop-color="#B97E22"/>
<stop offset="0.561" stop-color="#B37219"/>
<stop offset="0.619" stop-color="#B77A1F"/>
<stop offset="0.709" stop-color="#C28F32"/>
<stop offset="0.819" stop-color="#D4B34F"/>
<stop offset="0.871" stop-color="#DFC760"/>
<stop offset="0.971" stop-color="#C8953E"/>
</linearGradient>
<linearGradient id="paint2_linear_1_1141" x1="1.59156" y1="49.2918" x2="118.74" y2="57.4245" gradientUnits="userSpaceOnUse">
<stop stop-color="#CB9F3D"/>
<stop offset="0.24" stop-color="#FFFC9E"/>
<stop offset="0.318" stop-color="#E8D376"/>
<stop offset="0.43" stop-color="#CB9E44"/>
<stop offset="0.515" stop-color="#B97E24"/>
<stop offset="0.561" stop-color="#B37219"/>
<stop offset="0.619" stop-color="#B77A1F"/>
<stop offset="0.709" stop-color="#C28F32"/>
<stop offset="0.819" stop-color="#D4B34F"/>
<stop offset="0.871" stop-color="#DFC760"/>
<stop offset="0.971" stop-color="#C8953E"/>
</linearGradient>
<linearGradient id="paint3_linear_1_1141" x1="1.61583" y1="49.2647" x2="118.703" y2="57.4736" gradientUnits="userSpaceOnUse">
<stop stop-color="#CB9F3D"/>
<stop offset="0.24" stop-color="#FFFC9E"/>
<stop offset="0.318" stop-color="#E8D376"/>
<stop offset="0.43" stop-color="#CB9E44"/>
<stop offset="0.515" stop-color="#B97E24"/>
<stop offset="0.561" stop-color="#B37219"/>
<stop offset="0.619" stop-color="#B77A1F"/>
<stop offset="0.709" stop-color="#C28F32"/>
<stop offset="0.819" stop-color="#D4B34F"/>
<stop offset="0.871" stop-color="#DFC760"/>
<stop offset="0.971" stop-color="#C8953E"/>
</linearGradient>
<linearGradient id="paint4_linear_1_1141" x1="8.0007" y1="49.6272" x2="112.336" y2="56.8706" gradientUnits="userSpaceOnUse">
<stop offset="0.029" stop-color="#C8953E"/>
<stop offset="0.129" stop-color="#DFC760"/>
<stop offset="0.181" stop-color="#D4B34F"/>
<stop offset="0.291" stop-color="#C28F32"/>
<stop offset="0.381" stop-color="#B77A1F"/>
<stop offset="0.439" stop-color="#B37219"/>
<stop offset="0.492" stop-color="#B97E22"/>
<stop offset="0.589" stop-color="#CB9E3D"/>
<stop offset="0.718" stop-color="#E7D367"/>
<stop offset="0.76" stop-color="#F2E677"/>
<stop offset="1" stop-color="#CB9F3D"/>
</linearGradient>
<linearGradient id="paint5_linear_1_1141" x1="0.490582" y1="70.8748" x2="111.043" y2="101.238" gradientUnits="userSpaceOnUse">
<stop stop-color="#CB9F3D"/>
<stop offset="0.24" stop-color="#FFFC9E"/>
<stop offset="0.318" stop-color="#E8D376"/>
<stop offset="0.43" stop-color="#CB9E44"/>
<stop offset="0.515" stop-color="#B97E24"/>
<stop offset="0.561" stop-color="#B37219"/>
<stop offset="0.619" stop-color="#B77A1F"/>
<stop offset="0.709" stop-color="#C28F32"/>
<stop offset="0.819" stop-color="#D4B34F"/>
<stop offset="0.871" stop-color="#DFC760"/>
<stop offset="0.971" stop-color="#C8953E"/>
</linearGradient>
<linearGradient id="paint6_linear_1_1141" x1="53.4475" y1="36.8521" x2="53.4475" y2="28.6691" gradientUnits="userSpaceOnUse">
<stop stop-color="#38190F"/>
<stop offset="1" stop-color="#68390B"/>
</linearGradient>
<linearGradient id="paint7_linear_1_1141" x1="60.6175" y1="36.8521" x2="60.6175" y2="28.6691" gradientUnits="userSpaceOnUse">
<stop stop-color="#38190F"/>
<stop offset="1" stop-color="#68390B"/>
</linearGradient>
<linearGradient id="paint8_linear_1_1141" x1="67.7955" y1="36.8501" x2="67.7955" y2="28.6691" gradientUnits="userSpaceOnUse">
<stop stop-color="#38190F"/>
<stop offset="1" stop-color="#68390B"/>
</linearGradient>
<linearGradient id="paint9_linear_1_1141" x1="29.0845" y1="60.792" x2="29.0845" y2="41.092" gradientUnits="userSpaceOnUse">
<stop stop-color="#38190F"/>
<stop offset="1" stop-color="#68390B"/>
</linearGradient>
<linearGradient id="paint10_linear_1_1141" x1="40.7149" y1="59.8961" x2="40.7149" y2="47.5541" gradientUnits="userSpaceOnUse">
<stop stop-color="#38190F"/>
<stop offset="1" stop-color="#68390B"/>
</linearGradient>
<linearGradient id="paint11_linear_1_1141" x1="52.2545" y1="60.1581" x2="52.2545" y2="47.2111" gradientUnits="userSpaceOnUse">
<stop stop-color="#38190F"/>
<stop offset="1" stop-color="#68390B"/>
</linearGradient>
<linearGradient id="paint12_linear_1_1141" x1="64.9491" y1="59.4401" x2="64.9491" y2="47.4803" gradientUnits="userSpaceOnUse">
<stop stop-color="#38190F"/>
<stop offset="1" stop-color="#68390B"/>
</linearGradient>
<linearGradient id="paint13_linear_1_1141" x1="75.2465" y1="59.393" x2="75.2465" y2="42.417" gradientUnits="userSpaceOnUse">
<stop stop-color="#38190F"/>
<stop offset="1" stop-color="#68390B"/>
</linearGradient>
<linearGradient id="paint14_linear_1_1141" x1="82.865" y1="60.1581" x2="82.865" y2="47.2111" gradientUnits="userSpaceOnUse">
<stop stop-color="#38190F"/>
<stop offset="1" stop-color="#68390B"/>
</linearGradient>
<linearGradient id="paint15_linear_1_1141" x1="94.1664" y1="59.8961" x2="94.1664" y2="47.5541" gradientUnits="userSpaceOnUse">
<stop stop-color="#38190F"/>
<stop offset="1" stop-color="#68390B"/>
</linearGradient>
<linearGradient id="paint16_linear_1_1141" x1="41.9967" y1="77.2901" x2="41.9967" y2="66.8242" gradientUnits="userSpaceOnUse">
<stop stop-color="#38190F"/>
<stop offset="1" stop-color="#68390B"/>
</linearGradient>
<linearGradient id="paint17_linear_1_1141" x1="49.3622" y1="75.2649" x2="49.3622" y2="66.9711" gradientUnits="userSpaceOnUse">
<stop stop-color="#38190F"/>
<stop offset="1" stop-color="#68390B"/>
</linearGradient>
<linearGradient id="paint18_linear_1_1141" x1="56.5955" y1="75.154" x2="56.5955" y2="66.847" gradientUnits="userSpaceOnUse">
<stop stop-color="#38190F"/>
<stop offset="1" stop-color="#68390B"/>
</linearGradient>
<linearGradient id="paint19_linear_1_1141" x1="63.4285" y1="75.1501" x2="63.4285" y2="66.9711" gradientUnits="userSpaceOnUse">
<stop stop-color="#38190F"/>
<stop offset="1" stop-color="#68390B"/>
</linearGradient>
<linearGradient id="paint20_linear_1_1141" x1="67.7595" y1="75.1501" x2="67.7595" y2="66.9711" gradientUnits="userSpaceOnUse">
<stop stop-color="#38190F"/>
<stop offset="1" stop-color="#68390B"/>
</linearGradient>
<linearGradient id="paint21_linear_1_1141" x1="72.704" y1="75.1511" x2="72.704" y2="66.9711" gradientUnits="userSpaceOnUse">
<stop stop-color="#38190F"/>
<stop offset="1" stop-color="#68390B"/>
</linearGradient>
<linearGradient id="paint22_linear_1_1141" x1="79.073" y1="75.1501" x2="79.073" y2="66.9711" gradientUnits="userSpaceOnUse">
<stop stop-color="#38190F"/>
<stop offset="1" stop-color="#68390B"/>
</linearGradient>
<linearGradient id="paint23_linear_1_1141" x1="46.8999" y1="17.1838" x2="47.4863" y2="43.4281" gradientUnits="userSpaceOnUse">
<stop stop-color="#D98E1E"/>
<stop offset="0.029" stop-color="#DA9223"/>
<stop offset="0.065" stop-color="#DE9F32"/>
<stop offset="0.106" stop-color="#E5B54C"/>
<stop offset="0.149" stop-color="#EFD36F"/>
<stop offset="0.193" stop-color="#FBF99C"/>
<stop offset="0.199" stop-color="#FDFFA3"/>
<stop offset="0.351" stop-color="#E9D16E"/>
<stop offset="0.596" stop-color="#C88718"/>
<stop offset="1" stop-color="#FADA50"/>
</linearGradient>
<linearGradient id="paint24_linear_1_1141" x1="44.5397" y1="17.259" x2="44.5611" y2="43.4405" gradientUnits="userSpaceOnUse">
<stop stop-color="#D98E1E"/>
<stop offset="0.029" stop-color="#DA9223"/>
<stop offset="0.065" stop-color="#DE9F32"/>
<stop offset="0.106" stop-color="#E5B54C"/>
<stop offset="0.149" stop-color="#EFD36F"/>
<stop offset="0.193" stop-color="#FBF99C"/>
<stop offset="0.199" stop-color="#FDFFA3"/>
<stop offset="0.351" stop-color="#E9D16E"/>
<stop offset="0.596" stop-color="#C88718"/>
<stop offset="1" stop-color="#FADA50"/>
</linearGradient>
<linearGradient id="paint25_linear_1_1141" x1="44.456" y1="17.1969" x2="46.5529" y2="43.2997" gradientUnits="userSpaceOnUse">
<stop stop-color="#D98E1E"/>
<stop offset="0.029" stop-color="#DA9223"/>
<stop offset="0.065" stop-color="#DE9F32"/>
<stop offset="0.106" stop-color="#E5B54C"/>
<stop offset="0.149" stop-color="#EFD36F"/>
<stop offset="0.193" stop-color="#FBF99C"/>
<stop offset="0.199" stop-color="#FDFFA3"/>
<stop offset="0.351" stop-color="#E9D16E"/>
<stop offset="0.596" stop-color="#C88718"/>
<stop offset="1" stop-color="#FADA50"/>
</linearGradient>
<linearGradient id="paint26_linear_1_1141" x1="41.0685" y1="17.2344" x2="41.1071" y2="43.472" gradientUnits="userSpaceOnUse">
<stop stop-color="#D98E1E"/>
<stop offset="0.029" stop-color="#DA9223"/>
<stop offset="0.065" stop-color="#DE9F32"/>
<stop offset="0.106" stop-color="#E5B54C"/>
<stop offset="0.149" stop-color="#EFD36F"/>
<stop offset="0.193" stop-color="#FBF99C"/>
<stop offset="0.199" stop-color="#FDFFA3"/>
<stop offset="0.351" stop-color="#E9D16E"/>
<stop offset="0.596" stop-color="#C88718"/>
<stop offset="1" stop-color="#FADA50"/>
</linearGradient>
<linearGradient id="paint27_linear_1_1141" x1="43.6155" y1="17.2114" x2="44.1335" y2="43.4508" gradientUnits="userSpaceOnUse">
<stop stop-color="#D98E1E"/>
<stop offset="0.029" stop-color="#DA9223"/>
<stop offset="0.065" stop-color="#DE9F32"/>
<stop offset="0.106" stop-color="#E5B54C"/>
<stop offset="0.149" stop-color="#EFD36F"/>
<stop offset="0.193" stop-color="#FBF99C"/>
<stop offset="0.199" stop-color="#FDFFA3"/>
<stop offset="0.351" stop-color="#E9D16E"/>
<stop offset="0.596" stop-color="#C88718"/>
<stop offset="1" stop-color="#FADA50"/>
</linearGradient>
<linearGradient id="paint28_linear_1_1141" x1="39.4736" y1="17.2459" x2="39.6805" y2="43.4796" gradientUnits="userSpaceOnUse">
<stop stop-color="#D98E1E"/>
<stop offset="0.029" stop-color="#DA9223"/>
<stop offset="0.065" stop-color="#DE9F32"/>
<stop offset="0.106" stop-color="#E5B54C"/>
<stop offset="0.149" stop-color="#EFD36F"/>
<stop offset="0.193" stop-color="#FBF99C"/>
<stop offset="0.199" stop-color="#FDFFA3"/>
<stop offset="0.351" stop-color="#E9D16E"/>
<stop offset="0.596" stop-color="#C88718"/>
<stop offset="1" stop-color="#FADA50"/>
</linearGradient>
<linearGradient id="paint29_linear_1_1141" x1="43.7039" y1="17.2147" x2="43.8647" y2="43.4506" gradientUnits="userSpaceOnUse">
<stop stop-color="#D98E1E"/>
<stop offset="0.029" stop-color="#DA9223"/>
<stop offset="0.065" stop-color="#DE9F32"/>
<stop offset="0.106" stop-color="#E5B54C"/>
<stop offset="0.149" stop-color="#EFD36F"/>
<stop offset="0.193" stop-color="#FBF99C"/>
<stop offset="0.199" stop-color="#FDFFA3"/>
<stop offset="0.351" stop-color="#E9D16E"/>
<stop offset="0.596" stop-color="#C88718"/>
<stop offset="1" stop-color="#FADA50"/>
</linearGradient>
<linearGradient id="paint30_linear_1_1141" x1="39.6231" y1="17.2379" x2="40.3793" y2="43.4626" gradientUnits="userSpaceOnUse">
<stop stop-color="#D98E1E"/>
<stop offset="0.029" stop-color="#DA9223"/>
<stop offset="0.065" stop-color="#DE9F32"/>
<stop offset="0.106" stop-color="#E5B54C"/>
<stop offset="0.149" stop-color="#EFD36F"/>
<stop offset="0.193" stop-color="#FBF99C"/>
<stop offset="0.199" stop-color="#FDFFA3"/>
<stop offset="0.351" stop-color="#E9D16E"/>
<stop offset="0.596" stop-color="#C88718"/>
<stop offset="1" stop-color="#FADA50"/>
</linearGradient>
<linearGradient id="paint31_linear_1_1141" x1="44.8128" y1="17.1999" x2="44.8725" y2="43.4519" gradientUnits="userSpaceOnUse">
<stop stop-color="#D98E1E"/>
<stop offset="0.029" stop-color="#DA9223"/>
<stop offset="0.065" stop-color="#DE9F32"/>
<stop offset="0.106" stop-color="#E5B54C"/>
<stop offset="0.149" stop-color="#EFD36F"/>
<stop offset="0.193" stop-color="#FBF99C"/>
<stop offset="0.199" stop-color="#FDFFA3"/>
<stop offset="0.351" stop-color="#E9D16E"/>
<stop offset="0.596" stop-color="#C88718"/>
<stop offset="1" stop-color="#FADA50"/>
</linearGradient>
<linearGradient id="paint32_linear_1_1141" x1="41.0089" y1="17.2303" x2="43.3545" y2="43.2811" gradientUnits="userSpaceOnUse">
<stop stop-color="#D98E1E"/>
<stop offset="0.029" stop-color="#DA9223"/>
<stop offset="0.065" stop-color="#DE9F32"/>
<stop offset="0.106" stop-color="#E5B54C"/>
<stop offset="0.149" stop-color="#EFD36F"/>
<stop offset="0.193" stop-color="#FBF99C"/>
<stop offset="0.199" stop-color="#FDFFA3"/>
<stop offset="0.351" stop-color="#E9D16E"/>
<stop offset="0.596" stop-color="#C88718"/>
<stop offset="1" stop-color="#FADA50"/>
</linearGradient>
<linearGradient id="paint33_linear_1_1141" x1="44.3498" y1="17.2037" x2="44.8569" y2="43.4449" gradientUnits="userSpaceOnUse">
<stop stop-color="#D98E1E"/>
<stop offset="0.029" stop-color="#DA9223"/>
<stop offset="0.065" stop-color="#DE9F32"/>
<stop offset="0.106" stop-color="#E5B54C"/>
<stop offset="0.149" stop-color="#EFD36F"/>
<stop offset="0.193" stop-color="#FBF99C"/>
<stop offset="0.199" stop-color="#FDFFA3"/>
<stop offset="0.351" stop-color="#E9D16E"/>
<stop offset="0.596" stop-color="#C88718"/>
<stop offset="1" stop-color="#FADA50"/>
</linearGradient>
<linearGradient id="paint34_linear_1_1141" x1="543.621" y1="17.1838" x2="544.198" y2="43.4284" gradientUnits="userSpaceOnUse">
<stop stop-color="#D98E1E"/>
<stop offset="0.029" stop-color="#DA9223"/>
<stop offset="0.065" stop-color="#DE9F32"/>
<stop offset="0.106" stop-color="#E5B54C"/>
<stop offset="0.149" stop-color="#EFD36F"/>
<stop offset="0.193" stop-color="#FBF99C"/>
<stop offset="0.199" stop-color="#FDFFA3"/>
<stop offset="0.351" stop-color="#E9D16E"/>
<stop offset="0.596" stop-color="#C88718"/>
<stop offset="1" stop-color="#FADA50"/>
</linearGradient>
<linearGradient id="paint35_linear_1_1141" x1="542.203" y1="17.2593" x2="542.225" y2="43.4404" gradientUnits="userSpaceOnUse">
<stop stop-color="#D98E1E"/>
<stop offset="0.029" stop-color="#DA9223"/>
<stop offset="0.065" stop-color="#DE9F32"/>
<stop offset="0.106" stop-color="#E5B54C"/>
<stop offset="0.149" stop-color="#EFD36F"/>
<stop offset="0.193" stop-color="#FBF99C"/>
<stop offset="0.199" stop-color="#FDFFA3"/>
<stop offset="0.351" stop-color="#E9D16E"/>
<stop offset="0.596" stop-color="#C88718"/>
<stop offset="1" stop-color="#FADA50"/>
</linearGradient>
<linearGradient id="paint36_linear_1_1141" x1="542.34" y1="17.1969" x2="544.441" y2="43.299" gradientUnits="userSpaceOnUse">
<stop stop-color="#D98E1E"/>
<stop offset="0.029" stop-color="#DA9223"/>
<stop offset="0.065" stop-color="#DE9F32"/>
<stop offset="0.106" stop-color="#E5B54C"/>
<stop offset="0.149" stop-color="#EFD36F"/>
<stop offset="0.193" stop-color="#FBF99C"/>
<stop offset="0.199" stop-color="#FDFFA3"/>
<stop offset="0.351" stop-color="#E9D16E"/>
<stop offset="0.596" stop-color="#C88718"/>
<stop offset="1" stop-color="#FADA50"/>
</linearGradient>
<linearGradient id="paint37_linear_1_1141" x1="538.748" y1="17.2344" x2="538.785" y2="43.4719" gradientUnits="userSpaceOnUse">
<stop stop-color="#D98E1E"/>
<stop offset="0.029" stop-color="#DA9223"/>
<stop offset="0.065" stop-color="#DE9F32"/>
<stop offset="0.106" stop-color="#E5B54C"/>
<stop offset="0.149" stop-color="#EFD36F"/>
<stop offset="0.193" stop-color="#FBF99C"/>
<stop offset="0.199" stop-color="#FDFFA3"/>
<stop offset="0.351" stop-color="#E9D16E"/>
<stop offset="0.596" stop-color="#C88718"/>
<stop offset="1" stop-color="#FADA50"/>
</linearGradient>
<linearGradient id="paint38_linear_1_1141" x1="541.216" y1="17.2114" x2="541.733" y2="43.4508" gradientUnits="userSpaceOnUse">
<stop stop-color="#D98E1E"/>
<stop offset="0.029" stop-color="#DA9223"/>
<stop offset="0.065" stop-color="#DE9F32"/>
<stop offset="0.106" stop-color="#E5B54C"/>
<stop offset="0.149" stop-color="#EFD36F"/>
<stop offset="0.193" stop-color="#FBF99C"/>
<stop offset="0.199" stop-color="#FDFFA3"/>
<stop offset="0.351" stop-color="#E9D16E"/>
<stop offset="0.596" stop-color="#C88718"/>
<stop offset="1" stop-color="#FADA50"/>
</linearGradient>
<linearGradient id="paint39_linear_1_1141" x1="537.168" y1="17.2459" x2="537.375" y2="43.4796" gradientUnits="userSpaceOnUse">
<stop stop-color="#D98E1E"/>
<stop offset="0.029" stop-color="#DA9223"/>
<stop offset="0.065" stop-color="#DE9F32"/>
<stop offset="0.106" stop-color="#E5B54C"/>
<stop offset="0.149" stop-color="#EFD36F"/>
<stop offset="0.193" stop-color="#FBF99C"/>
<stop offset="0.199" stop-color="#FDFFA3"/>
<stop offset="0.351" stop-color="#E9D16E"/>
<stop offset="0.596" stop-color="#C88718"/>
<stop offset="1" stop-color="#FADA50"/>
</linearGradient>
<linearGradient id="paint40_linear_1_1141" x1="541.442" y1="17.2147" x2="541.598" y2="43.4506" gradientUnits="userSpaceOnUse">
<stop stop-color="#D98E1E"/>
<stop offset="0.029" stop-color="#DA9223"/>
<stop offset="0.065" stop-color="#DE9F32"/>
<stop offset="0.106" stop-color="#E5B54C"/>
<stop offset="0.149" stop-color="#EFD36F"/>
<stop offset="0.193" stop-color="#FBF99C"/>
<stop offset="0.199" stop-color="#FDFFA3"/>
<stop offset="0.351" stop-color="#E9D16E"/>
<stop offset="0.596" stop-color="#C88718"/>
<stop offset="1" stop-color="#FADA50"/>
</linearGradient>
<linearGradient id="paint41_linear_1_1141" x1="537.172" y1="17.2415" x2="537.914" y2="43.4599" gradientUnits="userSpaceOnUse">
<stop stop-color="#D98E1E"/>
<stop offset="0.029" stop-color="#DA9223"/>
<stop offset="0.065" stop-color="#DE9F32"/>
<stop offset="0.106" stop-color="#E5B54C"/>
<stop offset="0.149" stop-color="#EFD36F"/>
<stop offset="0.193" stop-color="#FBF99C"/>
<stop offset="0.199" stop-color="#FDFFA3"/>
<stop offset="0.351" stop-color="#E9D16E"/>
<stop offset="0.596" stop-color="#C88718"/>
<stop offset="1" stop-color="#FADA50"/>
</linearGradient>
<linearGradient id="paint42_linear_1_1141" x1="542.45" y1="17.1999" x2="542.511" y2="43.4519" gradientUnits="userSpaceOnUse">
<stop stop-color="#D98E1E"/>
<stop offset="0.029" stop-color="#DA9223"/>
<stop offset="0.065" stop-color="#DE9F32"/>
<stop offset="0.106" stop-color="#E5B54C"/>
<stop offset="0.149" stop-color="#EFD36F"/>
<stop offset="0.193" stop-color="#FBF99C"/>
<stop offset="0.199" stop-color="#FDFFA3"/>
<stop offset="0.351" stop-color="#E9D16E"/>
<stop offset="0.596" stop-color="#C88718"/>
<stop offset="1" stop-color="#FADA50"/>
</linearGradient>
<linearGradient id="paint43_linear_1_1141" x1="537.514" y1="17.2303" x2="539.834" y2="43.2854" gradientUnits="userSpaceOnUse">
<stop stop-color="#D98E1E"/>
<stop offset="0.029" stop-color="#DA9223"/>
<stop offset="0.065" stop-color="#DE9F32"/>
<stop offset="0.106" stop-color="#E5B54C"/>
<stop offset="0.149" stop-color="#EFD36F"/>
<stop offset="0.193" stop-color="#FBF99C"/>
<stop offset="0.199" stop-color="#FDFFA3"/>
<stop offset="0.351" stop-color="#E9D16E"/>
<stop offset="0.596" stop-color="#C88718"/>
<stop offset="1" stop-color="#FADA50"/>
</linearGradient>
<linearGradient id="paint44_linear_1_1141" x1="542.005" y1="17.2037" x2="542.523" y2="43.4446" gradientUnits="userSpaceOnUse">
<stop stop-color="#D98E1E"/>
<stop offset="0.029" stop-color="#DA9223"/>
<stop offset="0.065" stop-color="#DE9F32"/>
<stop offset="0.106" stop-color="#E5B54C"/>
<stop offset="0.149" stop-color="#EFD36F"/>
<stop offset="0.193" stop-color="#FBF99C"/>
<stop offset="0.199" stop-color="#FDFFA3"/>
<stop offset="0.351" stop-color="#E9D16E"/>
<stop offset="0.596" stop-color="#C88718"/>
<stop offset="1" stop-color="#FADA50"/>
</linearGradient>
<linearGradient id="paint45_linear_1_1141" x1="60.3" y1="90.785" x2="60.3" y2="83.561" gradientUnits="userSpaceOnUse">
<stop stop-color="#68390B"/>
<stop offset="1" stop-color="#AB6F16"/>
</linearGradient>
<linearGradient id="paint46_linear_1_1141" x1="69.029" y1="90.0681" x2="69.029" y2="84.2781" gradientUnits="userSpaceOnUse">
<stop stop-color="#68390B"/>
<stop offset="1" stop-color="#AB6F16"/>
</linearGradient>
<linearGradient id="paint47_linear_1_1141" x1="76.5555" y1="89.3511" x2="76.5555" y2="84.9971" gradientUnits="userSpaceOnUse">
<stop stop-color="#68390B"/>
<stop offset="1" stop-color="#AB6F16"/>
</linearGradient>
<linearGradient id="paint48_linear_1_1141" x1="1185.66" y1="90.0681" x2="1185.66" y2="84.2781" gradientUnits="userSpaceOnUse">
<stop stop-color="#68390B"/>
<stop offset="1" stop-color="#AB6F16"/>
</linearGradient>
<linearGradient id="paint49_linear_1_1141" x1="1193.06" y1="89.3511" x2="1193.06" y2="84.9971" gradientUnits="userSpaceOnUse">
<stop stop-color="#68390B"/>
<stop offset="1" stop-color="#AB6F16"/>
</linearGradient>
<linearGradient id="paint50_linear_1_1141" x1="31.9533" y1="89.3971" x2="31.9533" y2="64.062" gradientUnits="userSpaceOnUse">
<stop stop-color="#68390B"/>
<stop offset="1" stop-color="#AB6F16"/>
</linearGradient>
<linearGradient id="paint51_linear_1_1141" x1="60.2303" y1="38.6561" x2="60.2303" y2="15.2939" gradientUnits="userSpaceOnUse">
<stop stop-color="#68390B"/>
<stop offset="1" stop-color="#AB6F16"/>
</linearGradient>
<linearGradient id="paint52_linear_1_1141" x1="88.5113" y1="89.397" x2="88.5113" y2="64.0649" gradientUnits="userSpaceOnUse">
<stop stop-color="#68390B"/>
<stop offset="1" stop-color="#AB6F16"/>
</linearGradient>
<radialGradient id="paint53_radial_1_1141" cx="0" cy="0" r="1" gradientUnits="userSpaceOnUse" gradientTransform="translate(144.251 371.925) rotate(48.2293) scale(8.32202 4.70794)">
<stop stop-color="white"/>
<stop offset="0.056" stop-color="#E5E5E5"/>
<stop offset="0.2" stop-color="#A9A9A9"/>
<stop offset="0.344" stop-color="#757575"/>
<stop offset="0.484" stop-color="#4B4B4B"/>
<stop offset="0.619" stop-color="#2A2A2A"/>
<stop offset="0.748" stop-color="#131313"/>
<stop offset="0.868" stop-color="#040404"/>
<stop offset="0.971"/>
</radialGradient>
<radialGradient id="paint54_radial_1_1141" cx="0" cy="0" r="1" gradientUnits="userSpaceOnUse" gradientTransform="translate(200.82 309.43) rotate(48.4589) scale(8.15777 4.81159)">
<stop stop-color="white"/>
<stop offset="0.056" stop-color="#E5E5E5"/>
<stop offset="0.2" stop-color="#A9A9A9"/>
<stop offset="0.344" stop-color="#757575"/>
<stop offset="0.484" stop-color="#4B4B4B"/>
<stop offset="0.619" stop-color="#2A2A2A"/>
<stop offset="0.748" stop-color="#131313"/>
<stop offset="0.868" stop-color="#040404"/>
<stop offset="0.971"/>
</radialGradient>
<clipPath id="clip0_1_1141">
<rect width="120.462" height="104.692" fill="white"/>
</clipPath>
</defs>
</svg>
