<svg viewBox="0 0 16 15" xmlns="http://www.w3.org/2000/svg">
<path d="M11.953 4.93865C11.9018 4.8364 11.82 4.77505 11.7178 4.74438C11.6155 4.7137 11.5133 4.73415 11.411 4.78528L7.52556 7.03477L4.49898 4.9182C4.40695 4.85685 4.3047 4.8364 4.20245 4.85685C4.1002 4.8773 4.00818 4.92843 3.94683 5.02045C3.88548 5.11247 3.86503 5.2045 3.88548 5.31697C3.90593 5.42945 3.95706 5.51125 4.04908 5.5726L7.28016 7.84254H7.29039L7.31084 7.85276L7.32106 7.86299C7.33129 7.86299 7.33129 7.86299 7.33129 7.86299H7.34151V7.87321H7.35174C7.36196 7.87321 7.36196 7.87321 7.37219 7.87321C7.37219 7.87321 7.38241 7.88344 7.39264 7.88344H7.40286L7.42331 7.89366H7.43354C7.43354 7.89366 7.44376 7.89366 7.44376 7.90389H7.47444C7.48466 7.90389 7.48466 7.90389 7.48466 7.91411H7.54601C7.55624 7.91411 7.56646 7.91411 7.57669 7.90389H7.59714C7.60736 7.90389 7.60736 7.90389 7.61759 7.89366H7.62781C7.62781 7.89366 7.63804 7.89366 7.64826 7.89366C7.65849 7.89366 7.65849 7.89366 7.66871 7.89366C7.67894 7.89366 7.67894 7.89366 7.67894 7.88344C7.67894 7.88344 7.68916 7.88344 7.69939 7.88344C7.70961 7.88344 7.70961 7.87321 7.71984 7.87321H7.73006L7.74029 7.86299L11.8405 5.4908C11.9427 5.43967 12.0041 5.35787 12.0348 5.2454C12.0245 5.13292 12.0143 5.03067 11.953 4.93865ZM11.953 4.93865C11.9018 4.8364 11.82 4.77505 11.7178 4.74438C11.6155 4.7137 11.5133 4.73415 11.411 4.78528L7.52556 7.03477L4.49898 4.9182C4.40695 4.85685 4.3047 4.8364 4.20245 4.85685C4.1002 4.8773 4.00818 4.92843 3.94683 5.02045C3.88548 5.11247 3.86503 5.2045 3.88548 5.31697C3.90593 5.42945 3.95706 5.51125 4.04908 5.5726L7.28016 7.84254H7.29039L7.31084 7.85276L7.32106 7.86299C7.33129 7.86299 7.33129 7.86299 7.33129 7.86299H7.34151V7.87321H7.35174C7.36196 7.87321 7.36196 7.87321 7.37219 7.87321C7.37219 7.87321 7.38241 7.88344 7.39264 7.88344H7.40286L7.42331 7.89366H7.43354C7.43354 7.89366 7.44376 7.89366 7.44376 7.90389H7.47444C7.48466 7.90389 7.48466 7.90389 7.48466 7.91411H7.54601C7.55624 7.91411 7.56646 7.91411 7.57669 7.90389H7.59714C7.60736 7.90389 7.60736 7.90389 7.61759 7.89366H7.62781C7.62781 7.89366 7.63804 7.89366 7.64826 7.89366C7.65849 7.89366 7.65849 7.89366 7.66871 7.89366C7.67894 7.89366 7.67894 7.89366 7.67894 7.88344C7.67894 7.88344 7.68916 7.88344 7.69939 7.88344C7.70961 7.88344 7.70961 7.87321 7.71984 7.87321H7.73006L7.74029 7.86299L11.8405 5.4908C11.9427 5.43967 12.0041 5.35787 12.0348 5.2454C12.0245 5.13292 12.0143 5.03067 11.953 4.93865ZM11.953 4.93865C11.9018 4.8364 11.82 4.77505 11.7178 4.74438C11.6155 4.7137 11.5133 4.73415 11.411 4.78528L7.52556 7.03477L4.49898 4.9182C4.40695 4.85685 4.3047 4.8364 4.20245 4.85685C4.1002 4.8773 4.00818 4.92843 3.94683 5.02045C3.88548 5.11247 3.86503 5.2045 3.88548 5.31697C3.90593 5.42945 3.95706 5.51125 4.04908 5.5726L7.28016 7.84254H7.29039L7.31084 7.85276L7.32106 7.86299C7.33129 7.86299 7.33129 7.86299 7.33129 7.86299H7.34151V7.87321H7.35174C7.36196 7.87321 7.36196 7.87321 7.37219 7.87321C7.37219 7.87321 7.38241 7.88344 7.39264 7.88344H7.40286L7.42331 7.89366H7.43354C7.43354 7.89366 7.44376 7.89366 7.44376 7.90389H7.47444C7.48466 7.90389 7.48466 7.90389 7.48466 7.91411H7.54601C7.55624 7.91411 7.56646 7.91411 7.57669 7.90389H7.59714C7.60736 7.90389 7.60736 7.90389 7.61759 7.89366H7.62781C7.62781 7.89366 7.63804 7.89366 7.64826 7.89366C7.65849 7.89366 7.65849 7.89366 7.66871 7.89366C7.67894 7.89366 7.67894 7.89366 7.67894 7.88344C7.67894 7.88344 7.68916 7.88344 7.69939 7.88344C7.70961 7.88344 7.70961 7.87321 7.71984 7.87321H7.73006L7.74029 7.86299L11.8405 5.4908C11.9427 5.43967 12.0041 5.35787 12.0348 5.2454C12.0245 5.13292 12.0143 5.03067 11.953 4.93865ZM11.953 4.93865C11.9018 4.8364 11.82 4.77505 11.7178 4.74438C11.6155 4.7137 11.5133 4.73415 11.411 4.78528L7.52556 7.03477L4.49898 4.9182C4.40695 4.85685 4.3047 4.8364 4.20245 4.85685C4.1002 4.8773 4.00818 4.92843 3.94683 5.02045C3.88548 5.11247 3.86503 5.2045 3.88548 5.31697C3.90593 5.42945 3.95706 5.51125 4.04908 5.5726L7.28016 7.84254H7.29039L7.31084 7.85276L7.32106 7.86299C7.33129 7.86299 7.33129 7.86299 7.33129 7.86299H7.34151V7.87321H7.35174C7.36196 7.87321 7.36196 7.87321 7.37219 7.87321C7.37219 7.87321 7.38241 7.88344 7.39264 7.88344H7.40286L7.42331 7.89366H7.43354C7.43354 7.89366 7.44376 7.89366 7.44376 7.90389H7.47444C7.48466 7.90389 7.48466 7.90389 7.48466 7.91411H7.54601C7.55624 7.91411 7.56646 7.91411 7.57669 7.90389H7.59714C7.60736 7.90389 7.60736 7.90389 7.61759 7.89366H7.62781C7.62781 7.89366 7.63804 7.89366 7.64826 7.89366C7.65849 7.89366 7.65849 7.89366 7.66871 7.89366C7.67894 7.89366 7.67894 7.89366 7.67894 7.88344C7.67894 7.88344 7.68916 7.88344 7.69939 7.88344C7.70961 7.88344 7.70961 7.87321 7.71984 7.87321H7.73006L7.74029 7.86299L11.8405 5.4908C11.9427 5.43967 12.0041 5.35787 12.0348 5.2454C12.0245 5.13292 12.0143 5.03067 11.953 4.93865ZM14.8875 6.12474C14.8057 5.67485 14.683 5.23517 14.5194 4.80573C14.3558 4.37628 14.1513 3.97751 13.9162 3.57873C13.6708 3.19018 13.4049 2.82209 13.0879 2.47444L13.1084 2.45399C12.9346 2.25971 12.7505 2.06544 12.546 1.89162L12.5256 1.91207C12.1779 1.60532 11.8098 1.32924 11.4213 1.09407C11.0327 0.858896 10.6237 0.654397 10.2045 0.490798C9.78528 0.327198 9.3456 0.204499 8.89571 0.122699C8.43558 0.0408998 7.97546 0 7.50511 0C7.03476 0 6.57464 0.0408998 6.12474 0.122699C5.67485 0.204499 5.23517 0.327198 4.80573 0.490798C4.37628 0.654397 3.97751 0.858896 3.57873 1.09407C3.19018 1.32924 2.82209 1.60532 2.47444 1.91207L2.46421 1.90184C2.26994 2.07566 2.08589 2.25971 1.90184 2.46421L1.92229 2.48466C1.60532 2.83231 1.32924 3.20041 1.09407 3.58896C0.858896 3.9775 0.654397 4.3865 0.490798 4.81595C0.327198 5.23517 0.204499 5.67485 0.122699 6.13497C0.0408998 6.59509 0 7.04499 0 7.50511C0 7.99591 0.0511247 8.47648 0.143149 8.94683C0.235174 9.41718 0.368098 9.8773 0.552147 10.317C0.736196 10.7566 0.95092 11.1861 1.21677 11.5849C1.48262 11.9939 1.77914 12.3722 2.11656 12.7198L2.09611 12.7403C2.28016 12.9346 2.47444 13.1084 2.67894 13.2822L2.69939 13.2618C3.03681 13.5378 3.39468 13.7935 3.77301 14.0082C4.15133 14.2229 4.53988 14.407 4.94888 14.5603C5.35787 14.7035 5.7771 14.816 6.20654 14.8875C6.63599 14.9591 7.07566 15 7.52556 15C7.96524 15 8.40491 14.9591 8.83436 14.8875C9.2638 14.816 9.68303 14.7035 10.092 14.5603C10.4908 14.4172 10.8896 14.2331 11.2679 14.0082C11.6462 13.7935 12.0041 13.5378 12.3415 13.2618L12.3722 13.2924C12.5767 13.1186 12.771 12.9448 12.955 12.7505L12.9243 12.7198C13.272 12.362 13.5685 11.9836 13.8344 11.5849C14.1002 11.1759 14.3149 10.7566 14.499 10.317C14.683 9.8773 14.816 9.41718 14.908 8.94683C15 8.47648 15.0511 7.99591 15.0511 7.50511C15.0204 7.04499 14.9796 6.58487 14.8875 6.12474ZM13.6912 10.1227C13.3436 10.9407 12.863 11.6462 12.2495 12.2597C11.6462 12.863 10.9305 13.3436 10.1125 13.7014C9.29448 14.0491 8.42536 14.2331 7.50511 14.2331C6.58487 14.2331 5.70552 14.0593 4.89775 13.7014C4.07975 13.3538 3.37423 12.8732 2.76074 12.2597C2.14724 11.6462 1.66667 10.9407 1.31902 10.1227C0.961145 9.3047 0.787321 8.43558 0.787321 7.51534C0.787321 6.58487 0.961145 5.71575 1.31902 4.89775C1.66667 4.07975 2.14724 3.36401 2.76074 2.76074C3.37423 2.14724 4.07975 1.66667 4.89775 1.31902C5.71575 0.961145 6.58487 0.787321 7.50511 0.787321C8.42536 0.787321 9.3047 0.961145 10.1227 1.31902C10.9407 1.66667 11.6462 2.14724 12.2597 2.76074C12.863 3.37423 13.3436 4.07975 13.7014 4.89775C14.0593 5.71575 14.2331 6.58487 14.2331 7.51534C14.2229 8.43558 14.0491 9.3047 13.6912 10.1227ZM11.7178 4.7546C11.6155 4.72393 11.5133 4.74438 11.411 4.7955L7.52556 7.04499L4.49898 4.9182C4.40695 4.85685 4.3047 4.8364 4.20245 4.85685C4.1002 4.8773 4.00818 4.92843 3.94683 5.02045C3.88548 5.11247 3.86503 5.2045 3.88548 5.31697C3.90593 5.42945 3.95706 5.51125 4.04908 5.5726L7.28016 7.84254H7.29039L7.31084 7.85276L7.32106 7.86299C7.33129 7.86299 7.33129 7.86299 7.33129 7.86299H7.34151V7.87321H7.35174C7.36196 7.87321 7.36196 7.87321 7.37219 7.87321C7.37219 7.87321 7.38241 7.88344 7.39264 7.88344H7.40286L7.42331 7.89366H7.43354C7.43354 7.89366 7.44376 7.89366 7.44376 7.90389H7.47444C7.48466 7.90389 7.48466 7.90389 7.48466 7.91411H7.54601C7.55624 7.91411 7.56646 7.91411 7.57669 7.90389H7.59714C7.60736 7.90389 7.60736 7.90389 7.61759 7.89366H7.62781C7.62781 7.89366 7.63804 7.89366 7.64826 7.89366C7.65849 7.89366 7.65849 7.89366 7.66871 7.89366C7.67894 7.89366 7.67894 7.89366 7.67894 7.88344C7.67894 7.88344 7.68916 7.88344 7.69939 7.88344C7.70961 7.88344 7.70961 7.87321 7.71984 7.87321H7.73006L7.74029 7.86299L11.8405 5.4908C11.9427 5.43967 12.0041 5.35787 12.0348 5.2454C12.0654 5.14315 12.045 5.0409 11.9939 4.94888C11.9018 4.8364 11.82 4.77505 11.7178 4.7546ZM11.953 4.93865C11.9018 4.8364 11.82 4.77505 11.7178 4.74438C11.6155 4.7137 11.5133 4.73415 11.411 4.78528L7.52556 7.03477L4.49898 4.9182C4.40695 4.85685 4.3047 4.8364 4.20245 4.85685C4.1002 4.8773 4.00818 4.92843 3.94683 5.02045C3.88548 5.11247 3.86503 5.2045 3.88548 5.31697C3.90593 5.42945 3.95706 5.51125 4.04908 5.5726L7.28016 7.84254H7.29039L7.31084 7.85276L7.32106 7.86299C7.33129 7.86299 7.33129 7.86299 7.33129 7.86299H7.34151V7.87321H7.35174C7.36196 7.87321 7.36196 7.87321 7.37219 7.87321C7.37219 7.87321 7.38241 7.88344 7.39264 7.88344H7.40286L7.42331 7.89366H7.43354C7.43354 7.89366 7.44376 7.89366 7.44376 7.90389H7.47444C7.48466 7.90389 7.48466 7.90389 7.48466 7.91411H7.54601C7.55624 7.91411 7.56646 7.91411 7.57669 7.90389H7.59714C7.60736 7.90389 7.60736 7.90389 7.61759 7.89366H7.62781C7.62781 7.89366 7.63804 7.89366 7.64826 7.89366C7.65849 7.89366 7.65849 7.89366 7.66871 7.89366C7.67894 7.89366 7.67894 7.89366 7.67894 7.88344C7.67894 7.88344 7.68916 7.88344 7.69939 7.88344C7.70961 7.88344 7.70961 7.87321 7.71984 7.87321H7.73006L7.74029 7.86299L11.8405 5.4908C11.9427 5.43967 12.0041 5.35787 12.0348 5.2454C12.0245 5.13292 12.0143 5.03067 11.953 4.93865ZM11.953 4.93865C11.9018 4.8364 11.82 4.77505 11.7178 4.74438C11.6155 4.7137 11.5133 4.73415 11.411 4.78528L7.52556 7.03477L4.49898 4.9182C4.40695 4.85685 4.3047 4.8364 4.20245 4.85685C4.1002 4.8773 4.00818 4.92843 3.94683 5.02045C3.88548 5.11247 3.86503 5.2045 3.88548 5.31697C3.90593 5.42945 3.95706 5.51125 4.04908 5.5726L7.28016 7.84254H7.29039L7.31084 7.85276L7.32106 7.86299C7.33129 7.86299 7.33129 7.86299 7.33129 7.86299H7.34151V7.87321H7.35174C7.36196 7.87321 7.36196 7.87321 7.37219 7.87321C7.37219 7.87321 7.38241 7.88344 7.39264 7.88344H7.40286L7.42331 7.89366H7.43354C7.43354 7.89366 7.44376 7.89366 7.44376 7.90389H7.47444C7.48466 7.90389 7.48466 7.90389 7.48466 7.91411H7.54601C7.55624 7.91411 7.56646 7.91411 7.57669 7.90389H7.59714C7.60736 7.90389 7.60736 7.90389 7.61759 7.89366H7.62781C7.62781 7.89366 7.63804 7.89366 7.64826 7.89366C7.65849 7.89366 7.65849 7.89366 7.66871 7.89366C7.67894 7.89366 7.67894 7.89366 7.67894 7.88344C7.67894 7.88344 7.68916 7.88344 7.69939 7.88344C7.70961 7.88344 7.70961 7.87321 7.71984 7.87321H7.73006L7.74029 7.86299L11.8405 5.4908C11.9427 5.43967 12.0041 5.35787 12.0348 5.2454C12.0245 5.13292 12.0143 5.03067 11.953 4.93865ZM11.953 4.93865C11.9018 4.8364 11.82 4.77505 11.7178 4.74438C11.6155 4.7137 11.5133 4.73415 11.411 4.78528L7.52556 7.03477L4.49898 4.9182C4.40695 4.85685 4.3047 4.8364 4.20245 4.85685C4.1002 4.8773 4.00818 4.92843 3.94683 5.02045C3.88548 5.11247 3.86503 5.2045 3.88548 5.31697C3.90593 5.42945 3.95706 5.51125 4.04908 5.5726L7.28016 7.84254H7.29039L7.31084 7.85276L7.32106 7.86299C7.33129 7.86299 7.33129 7.86299 7.33129 7.86299H7.34151V7.87321H7.35174C7.36196 7.87321 7.36196 7.87321 7.37219 7.87321C7.37219 7.87321 7.38241 7.88344 7.39264 7.88344H7.40286L7.42331 7.89366H7.43354C7.43354 7.89366 7.44376 7.89366 7.44376 7.90389H7.47444C7.48466 7.90389 7.48466 7.90389 7.48466 7.91411H7.54601C7.55624 7.91411 7.56646 7.91411 7.57669 7.90389H7.59714C7.60736 7.90389 7.60736 7.90389 7.61759 7.89366H7.62781C7.62781 7.89366 7.63804 7.89366 7.64826 7.89366C7.65849 7.89366 7.65849 7.89366 7.66871 7.89366C7.67894 7.89366 7.67894 7.89366 7.67894 7.88344C7.67894 7.88344 7.68916 7.88344 7.69939 7.88344C7.70961 7.88344 7.70961 7.87321 7.71984 7.87321H7.73006L7.74029 7.86299L11.8405 5.4908C11.9427 5.43967 12.0041 5.35787 12.0348 5.2454C12.0245 5.13292 12.0143 5.03067 11.953 4.93865ZM11.953 4.93865C11.9018 4.8364 11.82 4.77505 11.7178 4.74438C11.6155 4.7137 11.5133 4.73415 11.411 4.78528L7.52556 7.03477L4.49898 4.9182C4.40695 4.85685 4.3047 4.8364 4.20245 4.85685C4.1002 4.8773 4.00818 4.92843 3.94683 5.02045C3.88548 5.11247 3.86503 5.2045 3.88548 5.31697C3.90593 5.42945 3.95706 5.51125 4.04908 5.5726L7.28016 7.84254H7.29039L7.31084 7.85276L7.32106 7.86299C7.33129 7.86299 7.33129 7.86299 7.33129 7.86299H7.34151V7.87321H7.35174C7.36196 7.87321 7.36196 7.87321 7.37219 7.87321C7.37219 7.87321 7.38241 7.88344 7.39264 7.88344H7.40286L7.42331 7.89366H7.43354C7.43354 7.89366 7.44376 7.89366 7.44376 7.90389H7.47444C7.48466 7.90389 7.48466 7.90389 7.48466 7.91411H7.54601C7.55624 7.91411 7.56646 7.91411 7.57669 7.90389H7.59714C7.60736 7.90389 7.60736 7.90389 7.61759 7.89366H7.62781C7.62781 7.89366 7.63804 7.89366 7.64826 7.89366C7.65849 7.89366 7.65849 7.89366 7.66871 7.89366C7.67894 7.89366 7.67894 7.89366 7.67894 7.88344C7.67894 7.88344 7.68916 7.88344 7.69939 7.88344C7.70961 7.88344 7.70961 7.87321 7.71984 7.87321H7.73006L7.74029 7.86299L11.8405 5.4908C11.9427 5.43967 12.0041 5.35787 12.0348 5.2454C12.0245 5.13292 12.0143 5.03067 11.953 4.93865Z" fill="white"/>
</svg>
