<svg width="42" height="41" viewBox="0 0 42 41" fill="none" xmlns="http://www.w3.org/2000/svg">
<path d="M21.3723 40.9976C17.3329 40.9974 13.3843 39.7949 10.0258 37.5423C6.66729 35.2897 4.04971 32.0882 2.50402 28.3424C0.958339 24.5967 0.553993 20.4751 1.34211 16.4988C2.13022 12.5224 4.07539 8.86993 6.93167 6.00314C9.78795 3.13634 13.4271 1.184 17.3888 0.392989C21.3506 -0.398025 25.457 0.00780922 29.189 1.55918C32.921 3.11056 36.1108 5.73778 38.3552 9.10867C40.5995 12.4796 41.7975 16.4427 41.7978 20.497C41.7917 25.9322 39.6377 31.143 35.8086 34.9863C31.9794 38.8296 26.7876 40.9915 21.3723 40.9976ZM21.3723 1.55312C17.639 1.55312 13.9896 2.66425 10.8855 4.74598C7.78144 6.8277 5.36211 9.78653 3.93346 13.2483C2.5048 16.7101 2.13097 20.5194 2.8593 24.1944C3.58762 27.8694 5.38535 31.2451 8.02516 33.8946C10.665 36.5442 14.0283 38.3485 17.6899 39.0795C21.3514 39.8105 25.1466 39.4354 28.5957 38.0014C32.0448 36.5675 34.9928 34.1393 37.0669 31.0237C39.141 27.9082 40.248 24.2453 40.248 20.4983C40.2419 15.4758 38.2512 10.6607 34.7126 7.10933C31.174 3.55797 26.3764 1.5603 21.3723 1.5545V1.55312Z" fill="white"/>
<path d="M18.3779 32.4199H23.1569V20.3982H26.4941L26.8504 16.3718H23.1638V14.079C23.1638 13.1293 23.3535 12.7552 24.267 12.7552H26.8614V8.57666H23.5434C19.9837 8.57666 18.3779 10.1513 18.3779 13.1622V16.3704H15.8901V20.4462H18.3779V32.4199Z" fill="white"/>
</svg>
