<svg width="81" height="81" viewBox="0 0 81 81" fill="none" xmlns="http://www.w3.org/2000/svg">
<g clip-path="url(#clip0_1_1968)">
<path d="M40.5106 0C18.1599 0 0 18.1599 0 40.5106C0 62.8401 18.1599 81.0212 40.5106 81.0212C62.8613 81.0212 81.0212 62.8613 81.0212 40.5106C81 18.1599 62.8401 0 40.5106 0ZM40.5106 78.4602C19.578 78.4602 2.53985 61.4432 2.53985 40.5106C2.53985 19.578 19.578 2.53985 40.5106 2.53985C61.4432 2.53985 78.4814 19.578 78.4814 40.5106C78.4814 61.4432 61.4432 78.4602 40.5106 78.4602Z" fill="white"/>
<path d="M34.2462 40.4684C34.3943 39.8758 34.0134 39.2832 33.4207 39.135C32.5741 38.9234 31.3254 37.082 31.4312 36.1719C31.4947 35.5792 31.0714 35.029 30.4787 34.9443C29.8649 34.8808 29.3358 35.3041 29.2511 35.8967C28.9972 37.9074 30.9867 40.8071 32.9128 41.2727C32.9974 41.2939 33.0821 41.2939 33.1667 41.2939C33.6747 41.3151 34.1192 40.9764 34.2462 40.4684Z" fill="white"/>
<path d="M51.4322 53.8236C51.2206 53.8236 51.0089 53.8447 50.7972 53.8659L47.8553 46.6062C49.2945 45.7807 50.6068 44.7013 51.7497 43.4102C54.3954 40.3835 55.9193 36.3621 55.9193 32.3618C55.9193 31.748 55.4325 31.2612 54.8187 31.2612H25.4834C24.8696 31.2612 24.3828 31.748 24.3828 32.3618C24.3828 33.0815 24.4252 33.8011 24.531 34.5207H19.7899C19.1762 34.5207 18.6894 35.0075 18.6894 35.6213C18.6894 36.2351 19.1762 36.7219 19.7899 36.7219H24.9755C25.6528 39.1771 26.8804 41.5053 28.5524 43.4102C29.653 44.6589 30.9229 45.7172 32.3199 46.5215L26.2031 62.1204C25.9914 62.6919 26.2666 63.3268 26.8169 63.5385C26.9439 63.5808 27.092 63.6232 27.219 63.6232C27.6635 63.6232 28.0656 63.348 28.2349 62.9247L29.6319 59.3901H46.416C46.7547 61.7818 48.8712 63.6232 51.411 63.6232C54.1837 63.6232 56.4484 61.4219 56.4484 58.7128C56.4696 56.0248 54.2049 53.8236 51.4322 53.8236ZM30.2245 41.9498C28.1503 39.6004 26.8804 36.5526 26.6475 33.4413H53.6969C53.4429 36.5526 52.173 39.6004 50.12 41.9498C49.1887 43.008 47.8553 44.1933 46.0985 45.0611H46.0774C46.0139 45.0822 45.9715 45.1034 45.9292 45.1457C44.363 45.8865 42.4581 46.3945 40.1934 46.3945C37.8652 46.3945 35.918 45.8654 34.3306 45.0822C34.2671 45.0399 34.2036 45.0188 34.1401 44.9764C32.4045 44.1298 31.1346 42.9869 30.2245 41.9498ZM34.3094 47.4951C36.1296 48.2147 38.098 48.6169 40.1511 48.6169C42.1618 48.6169 44.0878 48.2571 45.8657 47.5586L48.7019 54.6067C47.7283 55.1993 47.0086 56.1306 46.6277 57.1889H30.4996L34.3094 47.4951ZM51.4322 61.422C49.866 61.422 48.5961 60.2155 48.5961 58.7128C48.5961 57.2312 49.866 56.0036 51.4322 56.0036C52.9985 56.0036 54.2684 57.21 54.2684 58.7128C54.2684 60.2155 52.9985 61.422 51.4322 61.422Z" fill="white"/>
<path d="M31.3462 27.7271C30.8383 28.0658 30.7113 28.7643 31.0711 29.2511C31.2827 29.5685 31.6214 29.7379 31.9812 29.7379C32.1929 29.7379 32.4045 29.6744 32.595 29.5474C36.1931 27.0922 34.5634 24.4253 33.7803 23.1554C32.9125 21.7585 32.5527 20.9542 34.3306 19.7266C34.8385 19.388 34.9655 18.6895 34.6057 18.2027C34.2671 17.6947 33.5686 17.5678 33.0818 17.9276C29.4837 20.3828 31.1134 23.0496 31.8965 24.3195C32.7643 25.7164 33.1241 26.5207 31.3462 27.7271Z" fill="white"/>
<path d="M46.141 27.7271C45.633 28.0658 45.506 28.7643 45.8658 29.2511C46.0775 29.5685 46.4161 29.7379 46.7759 29.7379C46.9876 29.7379 47.1992 29.6744 47.3897 29.5474C50.9878 27.0922 49.3581 24.4253 48.575 23.1554C47.7072 21.7585 47.3474 20.9542 49.1253 19.7266C49.6332 19.388 49.7602 18.6895 49.4004 18.2027C49.0618 17.6947 48.3633 17.5678 47.8765 17.9276C44.2784 20.3828 45.9081 23.0496 46.6913 24.3195C47.559 25.7164 47.9189 26.5207 46.141 27.7271Z" fill="white"/>
<path d="M37.9284 27.7271C37.4204 28.0658 37.2934 28.7642 37.6532 29.251C37.8649 29.5685 38.2035 29.7378 38.5633 29.7378C38.775 29.7378 38.9866 29.6743 39.1771 29.5473C43.77 26.3937 41.6746 22.9861 40.6799 21.3563C39.4311 19.3245 38.8808 17.9699 41.5476 16.1285C42.0556 15.7898 42.1826 15.0914 41.8228 14.6046C41.4841 14.0966 40.7857 13.9696 40.2989 14.3294C35.706 17.4831 37.8014 20.8907 38.7961 22.5204C40.0449 24.5311 40.6164 25.9069 37.9284 27.7271Z" fill="white"/>
</g>
<defs>
<clipPath id="clip0_1_1968">
<rect width="81" height="81" fill="white"/>
</clipPath>
</defs>
</svg>
