<svg width="41" height="41" viewBox="0 0 41 41" fill="none" xmlns="http://www.w3.org/2000/svg">
<path d="M20.4248 40.9967C16.3854 40.9964 12.4368 39.7939 9.07824 37.5413C5.71972 35.2887 3.10213 32.0872 1.55645 28.3415C0.0107677 24.5958 -0.393577 20.4742 0.394535 16.4978C1.18265 12.5215 3.12782 8.86896 5.9841 6.00216C8.84038 3.13536 12.4795 1.18303 16.4413 0.392013C20.403 -0.399001 24.5095 0.00683266 28.2414 1.55821C31.9734 3.10958 35.1633 5.7368 37.4076 9.10769C39.6519 12.4786 40.85 16.4417 40.8503 20.496C40.8445 25.9313 38.6906 31.1424 34.8613 34.9857C31.0321 38.8291 25.8402 40.9909 20.4248 40.9967ZM20.4248 1.55214C16.6915 1.55214 13.0421 2.66327 9.93796 4.745C6.83387 6.82673 4.41454 9.78555 2.98589 13.2473C1.55723 16.7091 1.1834 20.5184 1.91173 24.1934C2.64005 27.8684 4.43778 31.2441 7.07759 33.8936C9.71741 36.5432 13.0808 38.3475 16.7423 39.0786C20.4038 39.8096 24.1991 39.4344 27.6481 38.0005C31.0972 36.5665 34.0452 34.1383 36.1193 31.0228C38.1934 27.9072 39.3005 24.2444 39.3005 20.4974C39.2947 15.4747 37.3041 10.6594 33.7654 7.10796C30.2267 3.55652 25.429 1.55896 20.4248 1.55352V1.55214Z" fill="white"/>
<path d="M9.95535 27.102C11.8416 28.3153 14.0239 28.9846 16.2636 29.0368C18.5034 29.089 20.7143 28.5219 22.6546 27.3978C24.5949 26.2736 26.1897 24.6356 27.2648 22.6628C28.34 20.6901 28.854 18.4586 28.7505 16.2124C29.5919 15.6028 30.3178 14.8472 30.8942 13.9813C30.11 14.3296 29.2784 14.5582 28.4269 14.6596C29.324 14.1213 29.9952 13.2737 30.3153 12.2751C29.4711 12.7777 28.5475 13.1318 27.5844 13.3221C26.9372 12.6291 26.0802 12.1698 25.1464 12.0155C24.2126 11.8613 23.2543 12.0206 22.4199 12.4688C21.5855 12.9171 20.9219 13.6291 20.5319 14.4946C20.1419 15.36 20.0474 16.3304 20.263 17.2553C18.5547 17.1695 16.8835 16.7239 15.358 15.9476C13.8325 15.1713 12.4867 14.0816 11.4081 12.7492C10.8592 13.6986 10.6912 14.8221 10.9383 15.8913C11.1853 16.9606 11.8289 17.8952 12.7381 18.5051C12.0555 18.4842 11.3879 18.2995 10.791 17.9666C10.7787 18.9713 11.116 19.9489 11.7449 20.7307C12.3738 21.5125 13.2548 22.0496 14.236 22.2492C13.6038 22.4224 12.9405 22.4477 12.297 22.3233C12.571 23.1802 13.1052 23.9297 13.8249 24.4667C14.5445 25.0037 15.4135 25.3012 16.3101 25.3177C14.5109 26.7338 12.2255 27.3755 9.95535 27.102Z" fill="white"/>
</svg>
