<svg width="42" height="41" viewBox="0 0 42 41" fill="none" xmlns="http://www.w3.org/2000/svg">
<path d="M21.2679 40.9976C17.2285 40.9974 13.2798 39.7949 9.92129 37.5422C6.56275 35.2896 3.94515 32.0879 2.39951 28.3421C0.853864 24.5963 0.449535 20.4747 1.23776 16.4983C2.02598 12.5219 3.97132 8.8694 6.82774 6.00265C9.68416 3.13591 13.3234 1.18368 17.2852 0.392821C21.2471 -0.398038 25.3536 0.00799547 29.0856 1.55958C32.8175 3.11117 36.0072 5.7386 38.2514 9.10967C40.4956 12.4807 41.6934 16.444 41.6934 20.4983C41.6872 25.9334 39.5333 31.1441 35.704 34.9872C31.8748 38.8303 26.6831 40.9918 21.2679 40.9976ZM21.2679 1.55312C17.5347 1.55339 13.8854 2.66475 10.7815 4.74664C7.67761 6.82854 5.25847 9.78747 3.83003 13.2493C2.40158 16.7111 2.02797 20.5203 2.75645 24.1952C3.48493 27.8701 5.28278 31.2457 7.92265 33.8951C10.5625 36.5445 13.9258 38.3487 17.5873 39.0796C21.2488 39.8105 25.044 39.4353 28.493 38.0013C31.942 36.5673 34.8899 34.1391 36.964 31.0236C39.038 27.9081 40.145 24.2453 40.145 20.4983C40.1392 15.4754 38.1484 10.6599 34.6095 7.10846C31.0705 3.55697 26.2724 1.55958 21.2679 1.5545V1.55312Z" fill="white"/>
<path d="M32.0904 15.0069C31.9628 14.5244 31.7111 14.0841 31.3605 13.73C31.0099 13.376 30.5727 13.1206 30.0928 12.9896C24.2262 12.3541 18.3085 12.3541 12.4419 12.9896C11.9623 13.121 11.5255 13.3764 11.1752 13.7305C10.8248 14.0845 10.5732 14.5247 10.4456 15.0069C9.81631 18.6415 9.81631 22.3579 10.4456 25.9925C10.5731 26.4748 10.8246 26.915 11.175 27.2691C11.5253 27.6231 11.9622 27.8786 12.4419 28.0098C18.3085 28.6454 24.2262 28.6454 30.0928 28.0098C30.5728 27.8789 31.01 27.6236 31.3607 27.2695C31.7113 26.9154 31.9629 26.475 32.0904 25.9925C32.7194 22.3579 32.7194 18.6416 32.0904 15.0069ZM18.9577 23.871V17.1298L24.8618 20.5011L18.9577 23.871Z" fill="white"/>
</svg>
